<svg width="14" height="14" viewBox="0 0 14 14" fill="none" xmlns="http://www.w3.org/2000/svg">
<path d="M2.2935 12.167C1.82849 12.167 1.48171 12.0567 1.25315 11.836C1.02459 11.6153 0.910305 11.2016 0.910305 10.5947C0.910305 10.1612 0.926068 9.77109 0.957593 9.4243C0.997001 9.07752 1.0167 8.70709 1.0167 8.31302C1.0167 8.08446 0.945771 7.8756 0.803906 7.68645C0.669921 7.49729 0.401953 7.39878 0 7.3909V6.77614C0.401953 6.76826 0.669921 6.66975 0.803906 6.48059C0.945771 6.29144 1.0167 6.08652 1.0167 5.86584C1.0167 5.46389 0.997001 5.08952 0.957593 4.74274C0.926068 4.39595 0.910305 4.00582 0.910305 3.57234C0.910305 2.96547 1.02459 2.5517 1.25315 2.33102C1.48171 2.11034 1.82849 2 2.2935 2H2.82549V2.55564H2.50629C2.19104 2.55564 1.97824 2.6384 1.8679 2.80391C1.75756 2.96942 1.70239 3.24527 1.70239 3.63146C1.70239 3.994 1.71421 4.34078 1.73785 4.6718C1.7615 5.00282 1.77332 5.36931 1.77332 5.77126C1.77332 6.15745 1.71815 6.45301 1.60781 6.65792C1.49747 6.85496 1.3162 6.98894 1.06399 7.05988V7.10716C1.3162 7.1781 1.49747 7.31602 1.60781 7.52094C1.71815 7.72586 1.77332 8.01747 1.77332 8.39578C1.77332 8.79773 1.7615 9.16422 1.73785 9.49524C1.71421 9.82626 1.70239 10.173 1.70239 10.5356C1.70239 10.9218 1.75756 11.1976 1.8679 11.3631C1.97824 11.5286 2.19104 11.6114 2.50629 11.6114H2.82549V12.167H2.2935Z" fill="#333333"/>
<path d="M6.51317 10.3701V4.62451H7.48258V10.3701H6.51317ZM7.0097 3.4423C6.82054 3.4423 6.66291 3.38713 6.53681 3.27679C6.41859 3.15857 6.35948 3.00094 6.35948 2.80391C6.35948 2.61475 6.41859 2.46106 6.53681 2.34284C6.66291 2.22462 6.82054 2.16551 7.0097 2.16551C7.19885 2.16551 7.35254 2.22462 7.47076 2.34284C7.59686 2.46106 7.65992 2.61475 7.65992 2.80391C7.65992 3.00094 7.59686 3.15857 7.47076 3.27679C7.35254 3.38713 7.19885 3.4423 7.0097 3.4423Z" fill="#333333"/>
<path d="M11.1863 12.167V11.6114H11.4937C11.8168 11.6114 12.0296 11.5286 12.1321 11.3631C12.2424 11.1976 12.2976 10.9218 12.2976 10.5356C12.2976 10.173 12.2858 9.82626 12.2621 9.49524C12.2464 9.16422 12.2385 8.79773 12.2385 8.39578C12.2385 8.01747 12.2897 7.72586 12.3922 7.52094C12.5025 7.31602 12.6838 7.1781 12.936 7.10716V7.05988C12.6838 6.98894 12.5025 6.85496 12.3922 6.65792C12.2897 6.45301 12.2385 6.15745 12.2385 5.77126C12.2385 5.36931 12.2464 5.00282 12.2621 4.6718C12.2858 4.34078 12.2976 3.994 12.2976 3.63146C12.2976 3.24527 12.2424 2.96942 12.1321 2.80391C12.0296 2.6384 11.8168 2.55564 11.4937 2.55564H11.1863V2H11.7065C12.1794 2 12.5262 2.11034 12.7469 2.33102C12.9754 2.5517 13.0897 2.96547 13.0897 3.57234C13.0897 4.00582 13.07 4.39595 13.0306 4.74274C12.9991 5.08952 12.9833 5.46389 12.9833 5.86584C12.9833 6.08652 13.0542 6.29144 13.1961 6.48059C13.338 6.66975 13.6059 6.76826 14 6.77614V7.3909C13.6059 7.39878 13.338 7.49729 13.1961 7.68645C13.0542 7.8756 12.9833 8.08446 12.9833 8.31302C12.9833 8.70709 12.9991 9.07752 13.0306 9.4243C13.07 9.77109 13.0897 10.1612 13.0897 10.5947C13.0897 11.2016 12.9754 11.6153 12.7469 11.836C12.5262 12.0567 12.1794 12.167 11.7065 12.167H11.1863Z" fill="#333333"/>
</svg>
