<svg width="12" height="12" viewBox="0 0 12 12" fill="none" xmlns="http://www.w3.org/2000/svg">
<path d="M2.89328 1.28564H9.10756C9.5338 1.28564 9.94259 1.45497 10.244 1.75637C10.5454 2.05776 10.7147 2.46655 10.7147 2.89279V9.10707C10.7147 9.53331 10.5454 9.9421 10.244 10.2435C9.94259 10.5449 9.5338 10.7142 9.10756 10.7142H2.89328C2.46703 10.7142 2.05825 10.5449 1.75685 10.2435C1.45546 9.9421 1.28613 9.53331 1.28613 9.10707V2.89279C1.28613 2.46655 1.45546 2.05776 1.75685 1.75637C2.05825 1.45497 2.46703 1.28564 2.89328 1.28564ZM5.67899 1.9285H2.89328C2.63753 1.9285 2.39226 2.0301 2.21142 2.21093C2.03058 2.39177 1.92899 2.63704 1.92899 2.89279V5.6785H5.67899V1.9285ZM1.92899 6.32136V9.10707C1.92899 9.36282 2.03058 9.60809 2.21142 9.78893C2.39226 9.96976 2.63753 10.0714 2.89328 10.0714H5.67899V6.32136H1.92899ZM6.32185 10.0714H9.10756C9.36331 10.0714 9.60858 9.96976 9.78941 9.78893C9.97025 9.60809 10.0718 9.36282 10.0718 9.10707V6.32136H6.32185V10.0714ZM10.0718 5.6785V2.89279C10.0718 2.63704 9.97025 2.39177 9.78941 2.21093C9.60858 2.0301 9.36331 1.9285 9.10756 1.9285H6.32185V5.6785H10.0718Z" fill="#333333"/>
</svg>
