<svg width="17" height="17" viewBox="0 0 17 17" fill="none" xmlns="http://www.w3.org/2000/svg">
<path d="M13.1667 7.83337H3.83333C3.09695 7.83337 2.5 8.43033 2.5 9.16671V13.8334C2.5 14.5698 3.09695 15.1667 3.83333 15.1667H13.1667C13.903 15.1667 14.5 14.5698 14.5 13.8334V9.16671C14.5 8.43033 13.903 7.83337 13.1667 7.83337Z" stroke="white" stroke-linecap="round" stroke-linejoin="round"/>
<path d="M5.1665 7.83337V5.16671C5.1665 4.28265 5.51769 3.43481 6.14281 2.80968C6.76794 2.18456 7.61578 1.83337 8.49984 1.83337C9.38389 1.83337 10.2317 2.18456 10.8569 2.80968C11.482 3.43481 11.8332 4.28265 11.8332 5.16671V7.83337" stroke="white" stroke-linecap="round" stroke-linejoin="round"/>
</svg>
