<svg width="16" height="16" viewBox="0 0 16 16" fill="none" xmlns="http://www.w3.org/2000/svg">
<path d="M10.667 2.66663H12.0003C12.3539 2.66663 12.6931 2.8071 12.9431 3.05715C13.1932 3.3072 13.3337 3.64634 13.3337 3.99996V13.3333C13.3337 13.6869 13.1932 14.0261 12.9431 14.2761C12.6931 14.5262 12.3539 14.6666 12.0003 14.6666H4.00033C3.6467 14.6666 3.30756 14.5262 3.05752 14.2761C2.80747 14.0261 2.66699 13.6869 2.66699 13.3333V3.99996C2.66699 3.64634 2.80747 3.3072 3.05752 3.05715C3.30756 2.8071 3.6467 2.66663 4.00033 2.66663H5.33366" stroke="#333333" stroke-linecap="round" stroke-linejoin="round"/>
<path d="M9.99967 1.33337H5.99967C5.63148 1.33337 5.33301 1.63185 5.33301 2.00004V3.33337C5.33301 3.70156 5.63148 4.00004 5.99967 4.00004H9.99967C10.3679 4.00004 10.6663 3.70156 10.6663 3.33337V2.00004C10.6663 1.63185 10.3679 1.33337 9.99967 1.33337Z" stroke="#333333" stroke-linecap="round" stroke-linejoin="round"/>
</svg>
