<svg width="12" height="12" viewBox="0 0 12 12" fill="none" xmlns="http://www.w3.org/2000/svg">
<path d="M3 4.5V1H9V4.5" stroke="#333333" stroke-linecap="round" stroke-linejoin="round"/>
<path d="M3 9H2C1.73478 9 1.48043 8.89464 1.29289 8.70711C1.10536 8.51957 1 8.26522 1 8V5.5C1 5.23478 1.10536 4.98043 1.29289 4.79289C1.48043 4.60536 1.73478 4.5 2 4.5H10C10.2652 4.5 10.5196 4.60536 10.7071 4.79289C10.8946 4.98043 11 5.23478 11 5.5V8C11 8.26522 10.8946 8.51957 10.7071 8.70711C10.5196 8.89464 10.2652 9 10 9H9" stroke="#333333" stroke-linecap="round" stroke-linejoin="round"/>
<path d="M9 7H3V11H9V7Z" stroke="#333333" stroke-linecap="round" stroke-linejoin="round"/>
</svg>
