<svg width="17" height="16" viewBox="0 0 17 16" fill="none" xmlns="http://www.w3.org/2000/svg">
<g clip-path="url(#clip0_137_1051)">
<path d="M0.668457 7C0.668457 7 3.34435 11.3333 8.02717 11.3333C12.71 11.3333 15.3859 7 15.3859 7" stroke="#782FEF" stroke-linecap="round" stroke-linejoin="round"/>
<path d="M7.52588 11.5H8.52934V14C8.52934 14.2761 8.30375 14.5 8.02761 14.5V14.5C7.75147 14.5 7.52588 14.2761 7.52588 14V11.5Z" fill="#782FEF"/>
<path d="M1.87695 9L2.6615 9.62348L1.09699 11.5786C0.924462 11.7942 0.608512 11.8291 0.392323 11.6573V11.6573C0.176134 11.4855 0.139914 11.1707 0.312446 10.9551L1.87695 9Z" fill="#782FEF"/>
<path d="M4.64355 10.7L5.51759 11.1912L4.28501 13.3691C4.14899 13.6094 3.84245 13.6939 3.60172 13.5586V13.5586C3.361 13.4233 3.27496 13.1182 3.41097 12.8779L4.64355 10.7Z" fill="#782FEF"/>
<path d="M11.4395 10.7L10.5654 11.1912L11.798 13.3691C11.934 13.6094 12.2406 13.6939 12.4813 13.5586V13.5586C12.722 13.4233 12.808 13.1182 12.672 12.8779L11.4395 10.7Z" fill="#782FEF"/>
<path d="M14.2495 9L13.465 9.62348L15.0295 11.5786C15.202 11.7942 15.518 11.8291 15.7341 11.6573V11.6573C15.9503 11.4855 15.9866 11.1707 15.814 10.9551L14.2495 9Z" fill="#782FEF"/>
</g>
<defs>
<clipPath id="clip0_137_1051">
<rect width="16.0554" height="16" fill="white"/>
</clipPath>
</defs>
</svg>
