<svg width="192" height="139" viewBox="0 0 192 139" fill="none" xmlns="http://www.w3.org/2000/svg">
<g clip-path="url(#clip0_28_495)">
<path d="M147.347 90.1117C172.538 90.1117 193.033 69.6755 193.033 44.5558C193.033 19.4362 172.538 -1 147.347 -1C140.027 -0.992503 132.816 0.764769 126.318 4.12448C119.819 7.4842 114.224 12.3484 110 18.3093L110.432 18.6138C114.607 12.7218 120.138 7.91384 126.561 4.59294C132.984 1.27204 140.112 -0.464944 147.347 -0.472375C172.246 -0.472375 192.504 19.7273 192.504 44.5558C192.504 69.3844 172.246 89.5841 147.347 89.5841C140.41 89.6066 133.563 88.0253 127.343 84.9642C121.123 81.9032 115.7 77.4459 111.499 71.9424L111.079 72.2634C115.329 77.8314 120.816 82.341 127.109 85.4378C133.402 88.5347 140.329 90.1346 147.347 90.1117Z" fill="#E6E6E6"/>
<path d="M107.426 52.871C107.926 52.871 108.416 52.7229 108.833 52.4454C109.249 52.1679 109.574 51.7735 109.765 51.3121C109.957 50.8507 110.007 50.343 109.909 49.8531C109.812 49.3633 109.57 48.9133 109.216 48.5602C108.862 48.207 108.411 47.9665 107.92 47.8691C107.428 47.7716 106.919 47.8217 106.456 48.0128C105.994 48.2039 105.598 48.5276 105.32 48.9428C105.042 49.3581 104.893 49.8463 104.893 50.3458C104.893 51.0155 105.16 51.6578 105.635 52.1314C106.11 52.6049 106.754 52.871 107.426 52.871Z" fill="#E6E6E6"/>
<path d="M106.543 50.8743L107.073 50.3458L106.543 49.8174C106.52 49.7943 106.501 49.7668 106.489 49.7366C106.476 49.7063 106.47 49.6739 106.469 49.6411C106.469 49.6083 106.476 49.5759 106.488 49.5456C106.501 49.5153 106.519 49.4877 106.543 49.4646C106.566 49.4414 106.593 49.423 106.624 49.4105C106.654 49.398 106.687 49.3915 106.72 49.3916C106.753 49.3917 106.785 49.3982 106.815 49.4108C106.846 49.4234 106.873 49.4419 106.896 49.4651L107.426 49.9936L107.956 49.4651C108.003 49.4184 108.067 49.3922 108.133 49.3922C108.199 49.3922 108.263 49.4184 108.31 49.4651C108.356 49.5119 108.383 49.5752 108.383 49.6413C108.383 49.7073 108.356 49.7707 108.31 49.8174L107.78 50.3458L108.31 50.8742C108.356 50.921 108.382 50.9843 108.382 51.0502C108.382 51.1161 108.356 51.1793 108.309 51.226C108.262 51.2726 108.199 51.2988 108.133 51.2989C108.067 51.299 108.003 51.273 107.956 51.2265L107.426 50.6981L106.896 51.2265C106.873 51.2497 106.846 51.268 106.815 51.2805C106.785 51.293 106.753 51.2995 106.72 51.2995C106.687 51.2995 106.655 51.293 106.624 51.2805C106.594 51.268 106.566 51.2497 106.543 51.2265C106.52 51.2034 106.502 51.1759 106.489 51.1457C106.476 51.1155 106.47 51.0831 106.47 51.0504C106.47 51.0177 106.476 50.9853 106.489 50.9551C106.502 50.9248 106.52 50.8974 106.543 50.8743Z" fill="white"/>
<path d="M162.03 22.0506C159.246 22.0506 156.99 19.8007 156.99 17.0253C156.99 14.2499 159.246 12 162.03 12C164.813 12 167.069 14.2499 167.069 17.0253C167.069 19.8007 164.813 22.0506 162.03 22.0506Z" fill="#E6E6E6"/>
<path d="M161.344 19.6407C161.257 19.6407 161.171 19.6205 161.093 19.5817C161.015 19.5429 160.947 19.4865 160.895 19.4171L159.52 17.5891C159.476 17.5304 159.444 17.4635 159.426 17.3924C159.407 17.3213 159.403 17.2473 159.414 17.1746C159.424 17.102 159.449 17.0321 159.486 16.9689C159.524 16.9057 159.574 16.8506 159.632 16.8065C159.691 16.7625 159.758 16.7304 159.83 16.7122C159.901 16.694 159.975 16.69 160.048 16.7003C160.121 16.7107 160.191 16.7353 160.254 16.7727C160.318 16.8101 160.373 16.8596 160.417 16.9183L161.317 18.1142L163.627 14.6587C163.71 14.5364 163.838 14.4518 163.983 14.4233C164.129 14.3949 164.279 14.4248 164.402 14.5067C164.526 14.5886 164.611 14.7158 164.641 14.8604C164.67 15.0051 164.641 15.1555 164.56 15.2789L161.81 19.3918C161.76 19.4662 161.694 19.5276 161.615 19.5709C161.537 19.6142 161.449 19.638 161.359 19.6405L161.344 19.6407Z" fill="white"/>
<path d="M155.859 26.0914H167.978C168.719 26.0914 169.319 26.6902 169.319 27.4288V27.9101C169.319 28.6488 168.719 29.2475 167.978 29.2475H155.859C155.118 29.2475 154.518 28.6488 154.518 27.9101V27.4288C154.518 26.6902 155.118 26.0914 155.859 26.0914Z" fill="#E6E6E6"/>
<path d="M148.341 32.4037H175.495C176.235 32.4037 176.836 33.0025 176.836 33.7411V34.2224C176.836 34.961 176.235 35.5598 175.495 35.5598H148.341C147.6 35.5598 147 34.961 147 34.2224V33.7411C147 33.0025 147.6 32.4037 148.341 32.4037Z" fill="#E6E6E6"/>
<path d="M148.341 38.7158H175.495C176.235 38.7158 176.836 39.3146 176.836 40.0532V40.5345C176.836 41.2732 176.235 41.8719 175.495 41.8719H148.341C147.6 41.8719 147 41.2732 147 40.5345V40.0532C147 39.3146 147.6 38.7158 148.341 38.7158Z" fill="#E6E6E6"/>
<path d="M122.848 107.018C123.349 107.018 123.839 106.87 124.255 106.592C124.672 106.315 124.996 105.92 125.188 105.459C125.38 104.998 125.43 104.49 125.332 104C125.234 103.51 124.993 103.06 124.639 102.707C124.285 102.354 123.834 102.113 123.342 102.016C122.851 101.918 122.342 101.969 121.879 102.16C121.417 102.351 121.021 102.674 120.743 103.09C120.464 103.505 120.316 103.993 120.316 104.493C120.316 105.162 120.583 105.805 121.058 106.278C121.533 106.752 122.177 107.018 122.848 107.018Z" fill="#E6E6E6"/>
<path d="M121.965 105.021L122.495 104.493L121.965 103.964C121.918 103.918 121.892 103.854 121.892 103.788C121.892 103.722 121.918 103.659 121.965 103.612C122.012 103.565 122.075 103.539 122.142 103.539C122.208 103.539 122.272 103.565 122.318 103.612L122.848 104.14L123.378 103.612C123.425 103.565 123.489 103.539 123.555 103.539C123.621 103.539 123.685 103.565 123.732 103.612C123.778 103.659 123.805 103.722 123.805 103.788C123.805 103.854 123.778 103.918 123.732 103.964L123.202 104.493L123.732 105.021C123.778 105.068 123.805 105.131 123.805 105.197C123.805 105.263 123.778 105.327 123.732 105.373C123.685 105.42 123.621 105.446 123.555 105.446C123.489 105.446 123.425 105.42 123.378 105.373L122.848 104.845L122.318 105.373C122.272 105.42 122.208 105.446 122.142 105.446C122.075 105.446 122.012 105.42 121.965 105.373C121.918 105.327 121.892 105.263 121.892 105.197C121.892 105.131 121.918 105.068 121.965 105.021Z" fill="white"/>
<path d="M132.03 75.0506C129.246 75.0506 126.99 72.8007 126.99 70.0253C126.99 67.2499 129.246 65 132.03 65C134.813 65 137.069 67.2499 137.069 70.0253C137.069 72.8007 134.813 75.0506 132.03 75.0506Z" fill="#E6E6E6"/>
<path d="M131.34 72.6407C131.253 72.6407 131.167 72.6205 131.089 72.5816C131.011 72.5428 130.944 72.4865 130.891 72.417L129.516 70.589C129.472 70.5303 129.44 70.4635 129.422 70.3924C129.404 70.3213 129.4 70.2473 129.41 70.1746C129.42 70.1019 129.445 70.032 129.483 69.9688C129.52 69.9057 129.57 69.8505 129.629 69.8065C129.687 69.7624 129.754 69.7304 129.826 69.7122C129.897 69.6939 129.971 69.6899 130.044 69.7003C130.117 69.7107 130.187 69.7353 130.251 69.7727C130.314 69.8101 130.369 69.8596 130.413 69.9183L131.313 71.1141L133.623 67.6586C133.664 67.597 133.716 67.544 133.777 67.5027C133.839 67.4614 133.907 67.4325 133.98 67.4178C134.052 67.4031 134.127 67.4029 134.2 67.4171C134.272 67.4313 134.341 67.4596 134.403 67.5005C134.464 67.5414 134.517 67.594 134.558 67.6553C134.599 67.7167 134.628 67.7855 134.642 67.8578C134.656 67.9302 134.656 68.0046 134.641 68.0768C134.626 68.1491 134.597 68.2177 134.556 68.2788L131.806 72.3917C131.757 72.4661 131.69 72.5275 131.611 72.5708C131.533 72.6141 131.445 72.638 131.355 72.6405L131.34 72.6407Z" fill="white"/>
<path d="M125.858 79.0914H137.977C138.718 79.0914 139.318 79.6902 139.318 80.4288V80.9101C139.318 81.6488 138.718 82.2476 137.977 82.2476H125.858C125.117 82.2476 124.517 81.6488 124.517 80.9101V80.4288C124.517 79.6902 125.117 79.0914 125.858 79.0914Z" fill="#E6E6E6"/>
<path d="M118.341 85.4037H145.495C146.235 85.4037 146.836 86.0025 146.836 86.7411V87.2224C146.836 87.961 146.235 88.5598 145.495 88.5598H118.341C117.6 88.5598 117 87.961 117 87.2224V86.7411C117 86.0025 117.6 85.4037 118.341 85.4037Z" fill="#E6E6E6"/>
<path d="M118.341 91.7159H145.495C146.235 91.7159 146.836 92.3147 146.836 93.0533V93.5347C146.836 94.2733 146.235 94.8721 145.495 94.8721H118.341C117.6 94.8721 117 94.2733 117 93.5347V93.0533C117 92.3147 117.6 91.7159 118.341 91.7159Z" fill="#E6E6E6"/>
<path d="M70.4609 96.2438C71.1526 96.2438 71.8287 96.0393 72.4038 95.6561C72.9789 95.273 73.4271 94.7284 73.6918 94.0912C73.9565 93.454 74.0257 92.7529 73.8908 92.0764C73.7559 91.4 73.4228 90.7787 72.9337 90.291C72.4447 89.8033 71.8215 89.4712 71.1432 89.3367C70.4648 89.2021 69.7617 89.2712 69.1226 89.5351C68.4836 89.799 67.9375 90.246 67.5532 90.8194C67.1689 91.3929 66.9638 92.0671 66.9638 92.7567C66.9638 93.6816 67.3323 94.5685 67.9881 95.2225C68.6439 95.8765 69.5334 96.2438 70.4609 96.2438Z" fill="#E6E6E6"/>
<path d="M69.2419 93.4864L69.9736 92.7567L69.2419 92.027C69.1772 91.9625 69.1408 91.875 69.1408 91.7838C69.1408 91.6926 69.1772 91.6051 69.2419 91.5406C69.3065 91.4761 69.3943 91.4398 69.4858 91.4398C69.5773 91.4398 69.665 91.4761 69.7297 91.5406L70.4615 92.2703L71.1933 91.5406C71.258 91.4761 71.3457 91.4398 71.4372 91.4398C71.5287 91.4398 71.6165 91.4761 71.6812 91.5406C71.7459 91.6051 71.7822 91.6926 71.7822 91.7838C71.7822 91.875 71.7459 91.9625 71.6812 92.027L70.9494 92.7567L71.6812 93.4864C71.7459 93.5509 71.7822 93.6384 71.7822 93.7297C71.7822 93.8209 71.7459 93.9084 71.6812 93.9729C71.6165 94.0374 71.5287 94.0737 71.4372 94.0737C71.3457 94.0737 71.258 94.0374 71.1933 93.9729L70.4615 93.2432L69.7297 93.9729C69.6651 94.0374 69.5773 94.0737 69.4858 94.0737C69.3943 94.0737 69.3066 94.0374 69.2419 93.9729C69.1772 93.9084 69.1408 93.8209 69.1408 93.7297C69.1408 93.6384 69.1772 93.5509 69.2419 93.4864L69.2419 93.4864Z" fill="white"/>
<path d="M85.6979 55.0646C81.8543 55.0646 78.7385 51.9577 78.7385 48.1251C78.7385 44.2926 81.8543 41.1857 85.6979 41.1857C89.5414 41.1857 92.6572 44.2926 92.6572 48.1251C92.6572 51.9577 89.5414 55.0646 85.6979 55.0646Z" fill="#782FEF"/>
<path d="M84.7479 51.7368C84.6277 51.7368 84.5092 51.7089 84.4017 51.6553C84.2942 51.6017 84.2007 51.5239 84.1286 51.428L82.23 48.9037C82.169 48.8226 82.1246 48.7303 82.0994 48.6321C82.0742 48.5339 82.0686 48.4317 82.083 48.3314C82.0974 48.231 82.1314 48.1345 82.1832 48.0473C82.235 47.9601 82.3035 47.8839 82.3849 47.823C82.4662 47.7622 82.5587 47.718 82.6572 47.6928C82.7557 47.6677 82.8582 47.6621 82.9588 47.6764C83.0595 47.6908 83.1563 47.7247 83.2437 47.7764C83.3312 47.828 83.4076 47.8964 83.4686 47.9775L84.7108 49.6288L87.901 44.8571C87.9574 44.7727 88.0299 44.7003 88.1144 44.6438C88.1989 44.5874 88.2937 44.5481 88.3934 44.5282C88.4931 44.5083 88.5957 44.5082 88.6955 44.5278C88.7952 44.5475 88.8901 44.5866 88.9747 44.6428C89.0593 44.6991 89.132 44.7714 89.1886 44.8556C89.2451 44.9399 89.2845 45.0344 89.3044 45.1338C89.3244 45.2333 89.3245 45.3356 89.3047 45.4351C89.2849 45.5345 89.2457 45.6291 89.1893 45.7135L85.3921 51.3931C85.3234 51.4958 85.231 51.5806 85.1227 51.6403C85.0143 51.7001 84.8932 51.7331 84.7694 51.7366C84.7622 51.7367 84.7551 51.7368 84.7479 51.7368Z" fill="white"/>
<path d="M76.6652 60.6447H94.4224C95.1632 60.6447 95.7637 61.2434 95.7637 61.9821V63.6656C95.7637 64.4042 95.1632 65.003 94.4224 65.003H76.6652C75.9244 65.003 75.3239 64.4042 75.3239 63.6656V61.9821C75.3239 61.2434 75.9244 60.6447 76.6652 60.6447Z" fill="#3F3D56"/>
<path d="M66.2848 69.3612H104.803C105.544 69.3612 106.145 69.96 106.145 70.6986V72.3821C106.145 73.1207 105.544 73.7195 104.803 73.7195H66.2848C65.544 73.7195 64.9435 73.1207 64.9435 72.3821V70.6986C64.9435 69.96 65.544 69.3612 66.2848 69.3612Z" fill="#3F3D56"/>
<path d="M66.2848 78.0778H104.803C105.544 78.0778 106.145 78.6765 106.145 79.4152V81.0987C106.145 81.8373 105.544 82.4361 104.803 82.4361H66.2848C65.544 82.4361 64.9435 81.8373 64.9435 81.0987V79.4152C64.9435 78.6765 65.544 78.0778 66.2848 78.0778Z" fill="#3F3D56"/>
<path d="M52.2555 136.284L55.4698 136.284L56.999 123.2L52.2548 123.2L52.2555 136.284Z" fill="#FFB6B6"/>
<path d="M52.3395 135.176L55.7715 133.703L55.8698 133.66L57.7646 135.176C58.8345 135.176 59.8605 135.625 60.617 136.423C61.3736 137.221 61.7987 138.304 61.7988 139.433V139.571H51.4349V135.176H52.3395Z" fill="#2F2E41"/>
<path d="M25.0864 133.443L28.156 134.449L33.2959 122.434L28.7653 120.948L25.0864 133.443Z" fill="#FFB6B6"/>
<path d="M25.4786 132.412L29.1702 132.08L29.276 132.07L30.6593 134.111C31.6809 134.446 32.5346 135.196 33.0325 136.195C33.5304 137.194 33.6319 138.361 33.3145 139.44L33.2756 139.572L23.3786 136.326L24.6147 132.128L25.4786 132.412Z" fill="#2F2E41"/>
<path d="M37.9468 69.2612L36.6395 73.1849V75.3058L36.8217 77.6382L34.7983 85.417L33.211 102.57L25.2231 127.963L31.3479 129.824L46.9858 88.3357L51.925 130.3L57.5261 130.142C57.5261 130.142 58.4844 127.697 58.2324 126.367C57.9804 125.038 57.9804 126.633 57.9804 125.038C57.9804 123.442 59.0728 124.135 58.2746 122.858C57.4765 121.581 57.5758 120.463 57.5261 119.692C57.4765 118.922 57.9804 87.8102 57.9804 86.7465C57.9804 85.6829 58.155 85.9159 58.0677 84.8687C57.9804 83.8215 56.873 84.252 57.1747 82.4413C57.4765 80.6306 57.5758 80.9471 57.5261 79.5923C57.4765 78.2374 56.782 70.2934 56.782 70.2934L37.9468 69.2612Z" fill="#2F2E41"/>
<path d="M58.9099 70.5376L47.6812 59.1102L44.5689 49.8108L49.1596 47.7042C51.5175 50.0878 54.0664 57.5121 54.0664 57.5121L61.7934 67.886C61.8536 67.9078 61.9136 67.9309 61.9729 67.9585C62.321 68.1205 62.6235 68.3744 62.8514 68.6958C63.0792 69.0172 63.2246 69.3952 63.2736 69.7933C63.3226 70.1913 63.2734 70.596 63.1308 70.9681C62.9883 71.3403 62.7572 71.6673 62.4599 71.9176C62.1626 72.168 61.8091 72.3332 61.4336 72.3972C61.0581 72.4613 60.6733 72.422 60.3164 72.2833C59.9595 72.1445 59.6425 71.9109 59.3961 71.6051C59.1497 71.2993 58.9823 70.9316 58.9099 70.5376Z" fill="#FFB8B8"/>
<path d="M50.4502 48.7425L44.6273 50.6933L44.6053 50.6894C42.438 50.3063 40.6396 46.5709 39.5127 43.5048C39.1419 42.4934 39.1488 41.3712 39.5321 40.365C39.9153 39.3589 40.6463 38.5438 41.5772 38.0846C42.2661 37.7507 43.0297 37.6268 43.7818 37.727C44.5339 37.8271 45.2444 38.1472 45.8332 38.6512L48.8233 41.2296L50.4502 48.7425Z" fill="#782FEF"/>
<path d="M36.9562 74.3017L36.9222 74.254C35.1054 71.7113 37.5903 65.4146 37.9659 64.5013L36.2767 63.9733L36.5711 60.5791L36.7129 59.0656L35.3995 57.7494L35.3951 57.7158L34.4918 50.9321L33.3099 46.4424C32.8644 44.7451 32.855 42.9532 33.2826 41.2508C33.7102 39.5483 34.5595 37.9966 35.7431 36.755L38.1592 34.2236L41.0538 29.4423L45.9071 29.3101L47.6523 32.5817C49.2753 32.9312 50.7306 33.8706 51.7648 35.236C52.799 36.6014 53.3465 38.3065 53.3119 40.0541L53.1476 48.7639L54.8891 59.5553L54.9379 61.5155L56.6472 63.4189L56.3311 65.3432L57.6097 65.8806L58.2353 68.615C58.4743 68.9304 60.052 71.035 60.0663 71.6217C60.0685 71.7097 60.009 71.7965 59.8791 71.8946C58.8578 72.6657 53.1499 74.3364 50.581 73.332C47.8446 72.263 37.12 74.2707 37.012 74.2911L36.9562 74.3017Z" fill="#782FEF"/>
<path d="M48.853 46.6911L51.3321 41.4752C54.9305 41.7346 62.0724 46.1253 62.0724 46.1253L75.5852 49.1486C75.9855 48.9863 76.4193 48.938 76.8428 49.0088C77.2664 49.0795 77.6649 49.2668 77.9981 49.5517C78.3313 49.8367 78.5874 50.2092 78.7408 50.6318C78.8942 51.0544 78.9394 51.5123 78.8719 51.9592C78.8043 52.4061 78.6264 52.8263 78.356 53.1776C78.0856 53.5289 77.7322 53.7988 77.3316 53.9602C76.9309 54.1215 76.497 54.1687 76.0736 54.0968C75.6502 54.025 75.2522 53.8367 74.9196 53.5509L57.7306 52.2507L48.853 46.6911Z" fill="#FFB8B8"/>
<path d="M49.8553 47.5475L43.3807 42.4699L42.2402 38.1327C42.0192 37.2804 42.0286 36.3798 42.2672 35.5328C42.5058 34.6858 42.9641 33.9261 43.5904 33.3395C44.4444 32.5505 45.5505 32.133 46.685 32.1716C47.8195 32.2103 48.8978 32.7021 49.7019 33.5476C52.1384 36.114 54.9173 39.6944 54.3204 42.1772L54.3144 42.2023L49.8553 47.5475Z" fill="#782FEF"/>
<path d="M43.3227 28.1244C40.1429 28.1244 37.5652 25.4042 37.5652 22.0487C37.5652 18.6932 40.1429 15.973 43.3227 15.973C46.5024 15.973 49.0801 18.6932 49.0801 22.0487C49.0801 25.4042 46.5024 28.1244 43.3227 28.1244Z" fill="#FFB8B8"/>
<path d="M39.5329 28.4028C40.4959 27.9255 41.6207 28.2156 42.6838 28.2597C43.7469 28.3038 45.035 27.8809 45.2606 26.7837C45.4274 25.9724 44.9261 25.0831 45.242 24.3228C45.5865 23.4937 46.6205 23.3757 47.4497 23.1436C48.4891 22.8266 49.4057 22.1684 50.0666 21.2644C50.7274 20.3603 51.098 19.2576 51.1246 18.1162C51.1823 18.5692 50.4477 18.718 50.2064 18.3384C49.9652 17.9588 50.1313 17.4334 50.3974 17.0727C50.6634 16.712 51.0225 16.424 51.2231 16.0189C51.4237 15.6138 51.3847 15.0122 50.9929 14.8172C50.7922 15.2449 50.5078 15.6228 50.1585 15.926C49.8093 16.2292 49.403 16.4508 48.9666 16.5762C49.1448 16.005 48.8929 15.3628 48.4873 14.9402C48.0565 14.5444 47.5601 14.2359 47.0231 14.0303C45.696 13.4232 44.1464 12.8191 42.8612 13.5195C42.5294 13.7038 42.2413 13.9648 42.0186 14.283C41.7958 14.6013 41.644 14.9685 41.5746 15.3573C39.1972 15.5695 36.756 18.2871 36.8913 20.8008C37.037 23.5069 37.1433 23.7258 39.278 28.2795" fill="#2F2E41"/>
<path d="M10.6902 139.727H19.0526L19.0885 139.659C19.1954 139.454 19.2986 139.237 19.3951 139.014C20.2565 137.068 20.6205 134.843 20.9418 132.879L21.1837 131.399C21.213 131.22 21.1909 131.035 21.1203 130.869C21.0497 130.703 20.9338 130.563 20.7874 130.467C20.641 130.371 20.4708 130.324 20.2985 130.33C20.1262 130.337 19.9598 130.398 19.8204 130.505C18.5496 131.481 17.2783 132.456 16.0064 133.429C15.5249 133.799 14.9749 134.227 14.4482 134.69C14.3973 134.429 14.3442 134.168 14.291 133.91C14.2544 133.733 14.1683 133.57 14.0437 133.444C13.9192 133.318 13.7618 133.235 13.5919 133.204C13.4219 133.173 13.247 133.196 13.0897 133.27C12.9323 133.345 12.7995 133.467 12.7084 133.622L11.73 135.28C11.0164 136.492 10.3866 137.686 10.5149 138.973C10.5143 138.989 10.5154 139.004 10.5182 139.02C10.5439 139.231 10.5915 139.439 10.6602 139.64L10.6902 139.727Z" fill="#F0F0F0"/>
</g>
<defs>
<clipPath id="clip0_28_495">
<rect width="192" height="139" fill="white" transform="matrix(-1 0 0 1 192 0)"/>
</clipPath>
</defs>
</svg>
