<svg width="190" height="144" viewBox="0 0 190 144" fill="none" xmlns="http://www.w3.org/2000/svg">
<g clip-path="url(#clip0_100_1732)">
<path d="M24.8893 144C47.5786 144 65.9719 142.598 65.9719 140.868C65.9719 139.138 47.5786 137.736 24.8893 137.736C2.19996 137.736 -16.1934 139.138 -16.1934 140.868C-16.1934 142.598 2.19996 144 24.8893 144Z" fill="#E6E6E6"/>
<path d="M15.21 31.9509C22.3596 28.8985 31.2645 30.8325 39.9612 32.1747C40.0421 30.5492 41.023 28.5709 39.9955 27.4369C38.7471 26.0592 38.862 24.6115 39.6133 23.1556C41.5342 19.4325 38.782 15.4709 36.0031 12.1768C35.3768 11.4361 34.5852 10.854 33.6927 10.478C32.8001 10.102 31.8318 9.94255 30.8664 10.0127L25.7187 10.3818C24.4661 10.4716 23.2706 10.9433 22.2924 11.7337C21.3141 12.5241 20.5996 13.5955 20.2446 14.8047C19.0154 16.4827 18.3576 18.156 18.7718 19.8206C16.9307 21.0836 16.6213 22.608 17.4487 24.3266C18.1502 25.4087 18.1427 26.462 17.4167 27.4861C16.4633 28.7918 15.7331 30.2477 15.256 31.7941L15.21 31.9509Z" fill="#2F2E41"/>
<path d="M185.114 124.486H39.3958C38.0999 124.486 36.8571 123.969 35.9408 123.05C35.0245 122.13 34.5098 120.882 34.5098 119.582C87.3325 113.419 139.162 113.419 190 119.582C190 120.882 189.485 122.13 188.569 123.05C187.652 123.969 186.41 124.486 185.114 124.486Z" fill="#2F2E41"/>
<path d="M190 119.87L34.5098 119.581L52.5305 89.1452L52.6167 89.0009V21.9229C52.6167 21.1087 52.7764 20.3025 53.0868 19.5503C53.3971 18.7981 53.8521 18.1146 54.4256 17.5389C54.9992 16.9631 55.6801 16.5065 56.4295 16.1949C57.1789 15.8834 57.9821 15.7231 58.7932 15.7231H164.854C165.665 15.7231 166.468 15.8834 167.218 16.1949C167.967 16.5065 168.648 16.9631 169.222 17.5389C169.795 18.1146 170.25 18.7981 170.56 19.5503C170.871 20.3025 171.031 21.1087 171.031 21.9229V89.4625L190 119.87Z" fill="#3F3D56"/>
<path d="M58.6525 20.0503C58.1191 20.0509 57.6077 20.2639 57.2306 20.6424C56.8534 21.021 56.6412 21.5343 56.6406 22.0698V83.2308C56.6412 83.7662 56.8534 84.2794 57.2306 84.658C57.6077 85.0366 58.1191 85.2496 58.6525 85.2502H165.857C166.391 85.2496 166.902 85.0366 167.279 84.658C167.656 84.2794 167.868 83.7661 167.869 83.2308V22.0698C167.868 21.5344 167.656 21.0211 167.279 20.6425C166.902 20.2639 166.391 20.0509 165.857 20.0503H58.6525Z" fill="white"/>
<path d="M59.1016 93.3281C58.9368 93.3284 58.7755 93.376 58.6367 93.4652C58.4979 93.5545 58.3874 93.6817 58.3182 93.8319L52.7655 105.949C52.705 106.081 52.6786 106.226 52.6886 106.37C52.6986 106.515 52.7447 106.655 52.8227 106.777C52.9007 106.9 53.0081 107 53.135 107.07C53.2618 107.139 53.4041 107.176 53.5487 107.176H170.32C170.467 107.176 170.612 107.138 170.74 107.066C170.868 106.994 170.976 106.891 171.054 106.765C171.131 106.64 171.175 106.497 171.181 106.349C171.188 106.202 171.157 106.055 171.091 105.923L165.055 93.8065C164.984 93.6625 164.874 93.5413 164.738 93.4568C164.602 93.3722 164.445 93.3277 164.284 93.3281H59.1016Z" fill="#2F2E41"/>
<path d="M111.824 19.0408C112.538 19.0408 113.117 18.4596 113.117 17.7426C113.117 17.0256 112.538 16.4443 111.824 16.4443C111.109 16.4443 110.53 17.0256 110.53 17.7426C110.53 18.4596 111.109 19.0408 111.824 19.0408Z" fill="white"/>
<path d="M100.346 109.484C100.156 109.484 99.9721 109.547 99.8217 109.663C99.6712 109.778 99.5629 109.941 99.5134 110.124L98.1205 115.317C98.0861 115.445 98.0815 115.58 98.1072 115.71C98.1329 115.841 98.1881 115.963 98.2686 116.069C98.3491 116.174 98.4527 116.26 98.5714 116.318C98.6901 116.377 98.8207 116.408 98.953 116.408H125.442C125.579 116.408 125.715 116.375 125.837 116.312C125.959 116.248 126.065 116.157 126.144 116.044C126.224 115.932 126.276 115.802 126.295 115.665C126.315 115.529 126.301 115.39 126.256 115.259L124.466 110.066C124.407 109.896 124.297 109.749 124.151 109.644C124.005 109.54 123.83 109.484 123.651 109.484H100.346Z" fill="#2F2E41"/>
<path d="M171.031 87.9912V89.1451H52.5312L52.6204 89.001V87.9912H171.031Z" fill="#2F2E41"/>
<path d="M167.725 40.3893C178.837 40.3893 187.844 31.3479 187.844 20.1947C187.844 9.04146 178.837 0 167.725 0C156.614 0 147.606 9.04146 147.606 20.1947C147.606 31.3479 156.614 40.3893 167.725 40.3893Z" fill="#782FEF"/>
<path d="M176.061 28.9937H159.391C159.086 28.9934 158.794 28.8717 158.578 28.6553C158.363 28.439 158.242 28.1457 158.241 27.8397V17.7424C158.242 17.4364 158.363 17.1431 158.578 16.9267C158.794 16.7104 159.086 16.5887 159.391 16.5884H176.061C176.366 16.5887 176.658 16.7104 176.873 16.9267C177.089 17.1431 177.21 17.4364 177.21 17.7424V27.8397C177.21 28.1457 177.089 28.439 176.873 28.6553C176.658 28.8717 176.366 28.9934 176.061 28.9937ZM159.391 17.7424V27.8397H176.062L176.061 17.7424L159.391 17.7424Z" fill="white"/>
<path d="M172.899 17.7423H162.552V13.1264C162.552 9.78302 164.728 7.35645 167.725 7.35645C170.723 7.35645 172.899 9.78302 172.899 13.1264L172.899 17.7423ZM163.701 16.5883H171.749V13.1264C171.749 10.4086 170.094 8.51043 167.725 8.51043C165.356 8.51043 163.701 10.4086 163.701 13.1264L163.701 16.5883Z" fill="white"/>
<path d="M167.726 23.6566C168.361 23.6566 168.875 23.1399 168.875 22.5026C168.875 21.8653 168.361 21.3486 167.726 21.3486C167.091 21.3486 166.576 21.8653 166.576 22.5026C166.576 23.1399 167.091 23.6566 167.726 23.6566Z" fill="white"/>
<path d="M153.682 64.8526H70.8302C70.4234 64.8521 70.0334 64.6897 69.7458 64.401C69.4582 64.1123 69.2964 63.7209 69.2959 63.3126V42.6831C69.2964 42.2748 69.4582 41.8834 69.7458 41.5947C70.0334 41.306 70.4234 41.1435 70.8302 41.1431H153.682C154.089 41.1435 154.479 41.306 154.766 41.5947C155.054 41.8834 155.216 42.2748 155.216 42.6831V63.3126C155.216 63.7209 155.054 64.1123 154.766 64.401C154.479 64.6897 154.089 64.8521 153.682 64.8526ZM70.8302 41.7591C70.5861 41.7594 70.3521 41.8568 70.1795 42.03C70.007 42.2033 69.9099 42.4382 69.9096 42.6831V63.3126C69.9099 63.5575 70.007 63.7924 70.1795 63.9657C70.3521 64.1389 70.5861 64.2363 70.8302 64.2366H153.682C153.926 64.2363 154.16 64.1389 154.332 63.9657C154.505 63.7924 154.602 63.5575 154.602 63.3126V42.6831C154.602 42.4381 154.505 42.2033 154.332 42.03C154.16 41.8568 153.926 41.7594 153.682 41.7591L70.8302 41.7591Z" fill="#E6E6E6"/>
<path d="M83.703 58.1323C87.1547 58.1323 89.9529 55.3236 89.9529 51.8589C89.9529 48.3942 87.1547 45.5854 83.703 45.5854C80.2513 45.5854 77.4531 48.3942 77.4531 51.8589C77.4531 55.3236 80.2513 58.1323 83.703 58.1323Z" fill="#E6E6E6"/>
<path d="M98.137 47.6768C98.0001 47.6765 97.8645 47.7034 97.7379 47.7559C97.6113 47.8083 97.4963 47.8853 97.3994 47.9824C97.3025 48.0795 97.2256 48.1949 97.1732 48.3218C97.1207 48.4488 97.0938 48.5849 97.0938 48.7223C97.0938 48.8598 97.1207 48.9959 97.1732 49.1228C97.2256 49.2498 97.3025 49.3651 97.3994 49.4622C97.4963 49.5594 97.6113 49.6363 97.7379 49.6888C97.8645 49.7412 98.0001 49.7681 98.137 49.7679H147.243C147.519 49.7679 147.784 49.6577 147.98 49.4617C148.175 49.2656 148.285 48.9996 148.285 48.7223C148.285 48.445 148.175 48.1791 147.98 47.983C147.784 47.7869 147.519 47.6768 147.243 47.6768H98.137Z" fill="#E6E6E6"/>
<path d="M98.1364 53.9497C97.8601 53.9497 97.5952 54.0599 97.3998 54.2559C97.2045 54.452 97.0947 54.718 97.0947 54.9953C97.0947 55.2726 97.2045 55.5385 97.3998 55.7346C97.5952 55.9307 97.8601 56.0408 98.1364 56.0408H119.267C119.543 56.0408 119.808 55.9307 120.003 55.7346C120.199 55.5385 120.309 55.2726 120.309 54.9953C120.309 54.718 120.199 54.452 120.003 54.2559C119.808 54.0599 119.543 53.9497 119.267 53.9497H98.1364Z" fill="#E6E6E6"/>
<path d="M52.327 54.3728L37.0113 62.546L36.8174 55.735C41.8163 54.8973 46.5723 53.4389 50.9699 51.0646L52.5718 47.0922C52.7463 46.6593 53.03 46.2795 53.395 45.9899C53.7599 45.7003 54.1937 45.511 54.6536 45.4405C55.1134 45.37 55.5837 45.4208 56.0181 45.5878C56.4525 45.7549 56.8362 46.0324 57.1315 46.3933C57.5636 46.9212 57.7795 47.5942 57.7357 48.276C57.6918 48.9578 57.3914 49.5974 56.8953 50.0652L52.327 54.3728Z" fill="#FFB8B8"/>
<path d="M14.9048 101.563C14.7931 101.151 14.7694 100.721 14.8352 100.3C14.9011 99.8786 15.055 99.4762 15.2869 99.119L18.6513 93.9362C19.4471 92.7103 20.6681 91.8248 22.0775 91.4516C23.4869 91.0784 24.9842 91.244 26.2789 91.9162C24.8649 94.3321 25.062 96.4515 26.7672 98.2933C24.1201 99.5905 21.6736 101.265 19.5034 103.264C19.1072 103.535 18.6522 103.707 18.1763 103.766C17.7004 103.825 17.2174 103.769 16.7675 103.602C16.3176 103.436 15.9138 103.164 15.5898 102.809C15.2658 102.454 15.031 102.027 14.9048 101.563Z" fill="#2F2E41"/>
<path d="M53.024 94.7856C52.5149 95.6373 51.7963 96.3434 50.937 96.8361C50.0778 97.3287 49.1068 97.5914 48.1173 97.5989L25.7662 97.7689L24.7969 92.1255L34.6843 89.2064L26.3478 82.7846L35.4597 72.0815L52.0098 87.565C52.9771 88.4699 53.6056 89.6808 53.7902 90.9951C53.9748 92.3094 53.7044 93.6475 53.024 94.7856Z" fill="#2F2E41"/>
<path d="M22.2765 133.381H17.042C12.3422 101.044 7.55822 68.6165 21.6949 56.5132L38.3678 59.2376L36.2352 73.4435L26.9294 84.1465L22.2765 133.381Z" fill="#2F2E41"/>
<path d="M26.878 140.706C26.4683 140.818 26.0395 140.842 25.6199 140.776C25.2003 140.71 24.7993 140.556 24.4435 140.323L18.7599 139.556C17.5386 138.757 16.6564 137.532 16.2845 136.117C15.9125 134.702 16.0774 133.199 16.7471 131.9C19.154 133.319 21.2654 133.121 23.1002 131.409C24.3966 134.037 26.5327 133.876 28.5727 136.09C28.8428 136.488 29.0143 136.944 29.073 137.422C29.1317 137.9 29.0758 138.385 28.91 138.836C28.7442 139.288 28.4733 139.693 28.1198 140.018C27.7664 140.344 27.3406 140.579 26.878 140.706Z" fill="#2F2E41"/>
<path d="M34.6847 34.9128L24.9912 32.5776C26.6012 29.2698 26.7337 25.5891 25.9606 21.68L32.5522 21.4854C32.7587 26.3465 33.3835 30.8881 34.6847 34.9128Z" fill="#FFB8B8"/>
<path d="M37.349 65.0973C30.2925 69.924 25.3065 65.2625 21.5017 58.0704C22.0304 53.6695 21.1743 48.403 19.5888 42.6804C18.8837 40.1564 19.1469 37.4587 20.3266 35.12C21.5062 32.7812 23.5166 30.9714 25.9607 30.0479L34.2971 33.5507C41.3757 39.3423 42.769 45.6158 40.1132 52.2324L37.349 65.0973Z" fill="#782FEF"/>
<path d="M17.0422 39.778L9.28738 43.8646L23.0522 52.0378L24.9675 56.78C25.0953 57.0965 25.1576 57.4359 25.1505 57.7773C25.1434 58.1188 25.0671 58.4552 24.9263 58.7661C24.7854 59.077 24.583 59.3559 24.3313 59.5857C24.0795 59.8155 23.7838 59.9914 23.4622 60.1027C23.0965 60.2293 22.7067 60.2692 22.3231 60.2192C21.9395 60.1693 21.5727 60.0309 21.2513 59.8149C20.9299 59.5989 20.6627 59.3112 20.4706 58.9742C20.2785 58.6373 20.1667 58.2602 20.144 57.8727L19.9503 54.5676L2.45536 48.7726C1.86591 48.5773 1.32846 48.25 0.883706 47.8154C0.438951 47.3807 0.0985541 46.8502 -0.111694 46.264C-0.418162 45.4095 -0.43376 44.4771 -0.156051 43.6128C0.121657 42.7484 0.677001 42.0009 1.42308 41.4871L15.4912 31.7993L17.0422 39.778Z" fill="#FFB8B8"/>
<path d="M24.7971 40.5561C21.5629 39.1334 18.6219 40.6789 14.9097 41.9184L14.3281 31.6045C18.0142 29.6325 21.5285 29.1008 24.7971 30.6315L24.7971 40.5561Z" fill="#782FEF"/>
<path d="M28.6665 26.5945C32.0845 26.5945 34.8554 23.8131 34.8554 20.3822C34.8554 16.9512 32.0845 14.1699 28.6665 14.1699C25.2484 14.1699 22.4775 16.9512 22.4775 20.3822C22.4775 23.8131 25.2484 26.5945 28.6665 26.5945Z" fill="#FFB8B8"/>
<path d="M36.0699 19.5982C29.9424 20.2006 25.2732 19.1947 22.2891 16.3305V14.0239H35.5499L36.0699 19.5982Z" fill="#2F2E41"/>
</g>
<defs>
<clipPath id="clip0_100_1732">
<rect width="190" height="144" fill="white"/>
</clipPath>
</defs>
</svg>
