<svg width="195" height="151" viewBox="0 0 195 151" fill="none" xmlns="http://www.w3.org/2000/svg">
<g clip-path="url(#clip0_89_3150)">
<path d="M130.303 148.694L126.302 147.008L123.557 126.938H87.0077L84.0327 146.926L80.4533 148.717C80.282 148.803 80.1447 148.944 80.0635 149.117C79.9824 149.291 79.9621 149.487 80.0061 149.673C80.0501 149.86 80.1558 150.026 80.3059 150.145C80.4561 150.263 80.6419 150.328 80.8334 150.328H129.973C130.169 150.328 130.36 150.26 130.511 150.136C130.663 150.012 130.768 149.838 130.806 149.646C130.845 149.453 130.816 149.253 130.725 149.08C130.633 148.906 130.484 148.77 130.303 148.694Z" fill="#E6E6E6"/>
<path d="M195.255 129.609H15.7131C14.7711 129.607 13.8684 129.231 13.2031 128.564C12.5377 127.896 12.1641 126.992 12.1641 126.05V100.716H198.804V126.05C198.804 126.992 198.43 127.896 197.765 128.564C197.1 129.231 196.197 129.607 195.255 129.609Z" fill="#CCCCCC"/>
<path d="M198.992 112.689H12V4.29067C12.0013 3.15309 12.4535 2.06248 13.2574 1.25811C14.0613 0.45373 15.1512 0.0012758 16.2881 0H194.704C195.84 0.00127287 196.93 0.453727 197.734 1.2581C198.538 2.06248 198.99 3.15309 198.992 4.29067V112.689Z" fill="#3F3D56"/>
<path d="M187.824 104.821H23.1691C22.2926 104.82 21.4524 104.471 20.8326 103.851C20.2129 103.231 19.8643 102.39 19.8633 101.513V11.1752C19.8643 10.2982 20.2129 9.45736 20.8326 8.8372C21.4523 8.21704 22.2926 7.8682 23.1691 7.86719H187.824C188.701 7.8682 189.541 8.21704 190.161 8.8372C190.78 9.45736 191.129 10.2982 191.13 11.1752V101.513C191.129 102.39 190.78 103.231 190.161 103.851C189.541 104.471 188.701 104.82 187.824 104.821Z" fill="white"/>
<path d="M151.675 150.538H59.1526C59.0579 150.54 58.9651 150.511 58.8888 150.454C58.8124 150.398 58.7568 150.318 58.7307 150.227C58.7143 150.165 58.7124 150.1 58.7251 150.037C58.7378 149.974 58.7647 149.915 58.8038 149.864C58.843 149.813 58.8932 149.772 58.9508 149.744C59.0083 149.715 59.0715 149.701 59.1357 149.7H151.64C151.74 149.697 151.839 149.727 151.919 149.787C151.999 149.846 152.057 149.931 152.083 150.028C152.097 150.089 152.097 150.153 152.082 150.214C152.068 150.275 152.04 150.332 152.001 150.381C151.962 150.43 151.912 150.469 151.856 150.497C151.799 150.524 151.737 150.538 151.675 150.538Z" fill="#CCCCCC"/>
<path d="M178.88 88.2709H100.725C99.9138 88.2699 99.136 87.9479 98.5623 87.3754C97.9887 86.803 97.666 86.0268 97.665 85.2172V59.8886C97.666 59.079 97.9887 58.3029 98.5623 57.7304C99.136 57.1579 99.9138 56.8359 100.725 56.835H178.88C179.692 56.8359 180.469 57.1579 181.043 57.7304C181.617 58.3029 181.939 59.079 181.94 59.8886V85.2172C181.939 86.0268 181.617 86.803 181.043 87.3754C180.469 87.9479 179.692 88.2699 178.88 88.2709Z" fill="#E6E6E6"/>
<path d="M57.0182 16.7501C58.2757 16.7501 59.2951 15.7101 59.2951 14.4273C59.2951 13.1444 58.2757 12.1045 57.0182 12.1045C55.7606 12.1045 54.7412 13.1444 54.7412 14.4273C54.7412 15.7101 55.7606 16.7501 57.0182 16.7501Z" fill="#3F3D56"/>
<path d="M49.1519 16.7501C50.4095 16.7501 51.4289 15.7101 51.4289 14.4273C51.4289 13.1444 50.4095 12.1045 49.1519 12.1045C47.8944 12.1045 46.875 13.1444 46.875 14.4273C46.875 15.7101 47.8944 16.7501 49.1519 16.7501Z" fill="#3F3D56"/>
<path d="M41.2857 16.7501C42.5433 16.7501 43.5627 15.7101 43.5627 14.4273C43.5627 13.1444 42.5433 12.1045 41.2857 12.1045C40.0282 12.1045 39.0088 13.1444 39.0088 14.4273C39.0088 15.7101 40.0282 16.7501 41.2857 16.7501Z" fill="#3F3D56"/>
<path d="M131.415 38.1526H99.5702C99.0447 38.1526 98.5408 37.9443 98.1692 37.5735C97.7976 37.2027 97.5889 36.6998 97.5889 36.1754C97.5889 35.651 97.7976 35.1481 98.1692 34.7773C98.5408 34.4066 99.0447 34.1982 99.5702 34.1982H131.415C131.941 34.1982 132.445 34.4066 132.816 34.7773C133.188 35.1481 133.397 35.651 133.397 36.1754C133.397 36.6998 133.188 37.2027 132.816 37.5735C132.445 37.9443 131.941 38.1526 131.415 38.1526Z" fill="#E6E6E6"/>
<path d="M156.267 44.844H99.5702C99.0447 44.844 98.5408 44.6357 98.1692 44.2649C97.7976 43.8941 97.5889 43.3912 97.5889 42.8668C97.5889 42.3425 97.7976 41.8395 98.1692 41.4688C98.5408 41.098 99.0447 40.8896 99.5702 40.8896H156.267C156.793 40.8896 157.297 41.098 157.668 41.4688C158.04 41.8395 158.249 42.3425 158.249 42.8668C158.249 43.3912 158.04 43.8941 157.668 44.2649C157.297 44.6357 156.793 44.844 156.267 44.844Z" fill="#E6E6E6"/>
<path d="M42.7662 148.045L45.4244 148.045L46.6888 137.813L42.7656 137.814L42.7662 148.045Z" fill="#FFB6B6"/>
<path d="M42.672 150.813L50.8464 150.813V150.71C50.8463 149.868 50.5111 149.06 49.9144 148.465C49.3177 147.869 48.5085 147.535 47.6647 147.535H47.6645L46.1713 146.404L43.3854 147.535L42.6719 147.535L42.672 150.813Z" fill="#2F2E41"/>
<path d="M27.3999 148.045L30.0582 148.045L31.3226 137.813L27.3994 137.814L27.3999 148.045Z" fill="#FFB6B6"/>
<path d="M27.3058 150.813L35.4801 150.813V150.71C35.4801 149.868 35.1449 149.06 34.5482 148.465C33.9515 147.869 33.1423 147.535 32.2985 147.535H32.2983L30.8051 146.404L28.0192 147.535L27.3057 147.535L27.3058 150.813Z" fill="#2F2E41"/>
<path d="M60.671 80.1114L51.6143 71.6357L54.0673 67.5352L62.9994 77.7282C63.5295 77.675 64.0631 77.7858 64.5279 78.0457C64.9927 78.3055 65.3661 78.7018 65.5974 79.1806C65.8287 79.6595 65.9068 80.1978 65.821 80.7225C65.7352 81.2472 65.4897 81.7328 65.1178 82.1134C64.7459 82.4941 64.2656 82.7513 63.7422 82.8502C63.2188 82.9491 62.6775 82.8849 62.1919 82.6663C61.7063 82.4476 61.2999 82.0852 61.0278 81.6281C60.7557 81.1711 60.6312 80.6416 60.671 80.1114V80.1114Z" fill="#FFB6B6"/>
<path d="M24.7991 92.4511C24.7991 92.4511 23.6747 102.549 26.1108 112.086L25.1933 116.696L27.2352 143.128H32.1915L35.6679 99.557L42.1573 143.128H47.363L46.7241 119.192L48.9772 96.191L48.0358 90.9551L24.7991 92.4511Z" fill="#2F2E41"/>
<path d="M38.4945 53.1104H27.4284L25.5674 57.832L26.0164 95.1627C26.0164 95.1627 47.9414 95.1627 49.4406 93.6667L44.7558 77.3978L43.0692 56.641L38.4945 53.1104Z" fill="#782FEF"/>
<path d="M44.5683 56.4534L52.4388 64.8684L55.2496 66.7383L55.9992 69.1693L52.8135 74.5923L49.2531 73.2832L48.1289 69.1693L41.5219 63.7794L40.8203 55.1445L44.5683 56.4534Z" fill="#2F2E41"/>
<path d="M37.4629 53.377L38.7579 58.8941L40.5395 78.6127L42.9756 93.5727H50.0036L45.7864 77.3039L44.0999 56.3601L38.4781 52.9941L37.4629 53.377Z" fill="#2F2E41"/>
<path d="M28.4378 53.377L30.421 59.726L33.6066 80.6698L28.7344 95.6295L24.004 95.7031L22.773 91.0623L25.5487 79.1738L21.8008 56.3601L27.4226 52.9941L28.4378 53.377Z" fill="#2F2E41"/>
<path d="M32.5318 51.2404C36.2363 51.2404 39.2394 48.2437 39.2394 44.547C39.2394 40.8503 36.2363 37.8535 32.5318 37.8535C28.8273 37.8535 25.8242 40.8503 25.8242 44.547C25.8242 48.2437 28.8273 51.2404 32.5318 51.2404Z" fill="#FFB6B6"/>
<path d="M28.6624 47.8605C28.6624 47.8605 28.3402 48.3481 28.9623 50.4172L26.1105 48.1324L25.7986 45.6234C25.7986 45.6234 24.3472 40.4508 29.3234 37.9679C29.3234 37.9679 33.6775 35.692 37.8244 39.0025C37.8244 39.0025 39.4831 39.2094 39.2758 39.4163C39.0684 39.6232 38.0317 40.2439 39.0684 40.037C40.1051 39.8301 40.7271 38.7956 40.7271 39.4163C40.7271 40.037 38.8611 41.4853 38.8611 41.4853C38.8611 41.4853 39.5868 43.4509 34.6106 40.7611C34.0783 42.089 33.0529 43.1605 31.7482 43.7523L31.9079 43.9079L30.6711 46.5545C30.6711 46.5545 29.3881 44.8604 28.6624 47.8605Z" fill="#2F2E41"/>
<path d="M29.189 100.091L51.7248 49.3843C51.9593 48.8582 52.3934 48.4464 52.9318 48.2393C53.4702 48.0322 54.0689 48.0466 54.5967 48.2794L71.0991 55.5829C71.6263 55.8169 72.0389 56.2501 72.2465 56.7873C72.4541 57.3246 72.4396 57.9221 72.2063 58.4487L49.6705 109.155C49.436 109.681 49.0019 110.093 48.4635 110.3C47.9251 110.507 47.3263 110.493 46.7986 110.26L30.2962 102.956C29.769 102.722 29.3563 102.289 29.1488 101.752C28.9412 101.215 28.9557 100.617 29.189 100.091Z" fill="white"/>
<path d="M29.189 100.091L51.7248 49.3843C51.9593 48.8582 52.3934 48.4464 52.9318 48.2393C53.4702 48.0322 54.0689 48.0466 54.5967 48.2794L71.0991 55.5829C71.6263 55.8169 72.0389 56.2501 72.2465 56.7873C72.4541 57.3246 72.4396 57.9221 72.2063 58.4487L49.6705 109.155C49.436 109.681 49.0019 110.093 48.4635 110.3C47.9251 110.507 47.3263 110.493 46.7986 110.26L30.2962 102.956C29.769 102.722 29.3563 102.289 29.1488 101.752C28.9412 101.215 28.9557 100.617 29.189 100.091ZM71.8562 58.2938C72.0484 57.8598 72.0604 57.3675 71.8893 56.9248C71.7183 56.482 71.3783 56.1251 70.9438 55.9322L54.4414 48.6288C54.0065 48.4369 53.5132 48.425 53.0695 48.5957C52.6258 48.7664 52.2681 49.1057 52.0749 49.5392L29.5391 100.245C29.3468 100.679 29.3349 101.172 29.506 101.614C29.677 102.057 30.017 102.414 30.4515 102.607L46.9539 109.91C47.3887 110.102 47.8821 110.114 48.3258 109.944C48.7694 109.773 49.1271 109.434 49.3204 109L71.8562 58.2938Z" fill="#E6E6E6"/>
<path d="M53.8223 79.3582C58.4796 79.3582 62.255 75.5907 62.255 70.9432C62.255 66.2958 58.4796 62.5283 53.8223 62.5283C49.1651 62.5283 45.3896 66.2958 45.3896 70.9432C45.3896 75.5907 49.1651 79.3582 53.8223 79.3582Z" fill="#CCCCCC"/>
<path d="M49.7198 88.5886C54.377 88.5886 58.1525 84.8211 58.1525 80.1737C58.1525 75.5263 54.377 71.7588 49.7198 71.7588C45.0626 71.7588 41.2871 75.5263 41.2871 80.1737C41.2871 84.8211 45.0626 88.5886 49.7198 88.5886Z" fill="#3F3D56"/>
<path d="M42.1985 97.0975C41.1862 96.6495 40.2722 96.0069 39.5088 95.2064C38.7453 94.4059 38.1474 93.4632 37.749 92.4321C37.3507 91.401 37.1598 90.3017 37.1872 89.197C37.2145 88.0923 37.4597 87.0038 37.9087 85.9936C38.3576 84.9834 39.0016 84.0714 39.8038 83.3095C40.6059 82.5477 41.5506 81.951 42.5839 81.5535C43.6172 81.156 44.7188 80.9655 45.8258 80.9928C46.9329 81.0201 48.0237 81.2648 49.036 81.7128C53.2934 83.597 57.9618 93.2607 53.3258 92.8167C48.0169 92.3083 46.4558 98.9817 42.1985 97.0975Z" fill="#782FEF"/>
<path d="M30.856 92.1051L24.2666 75.7217L29.5361 76.7734L33.9338 90.8225C34.4424 90.9807 34.8899 91.2913 35.2156 91.712C35.5412 92.1328 35.7292 92.6433 35.7541 93.1743C35.7789 93.7054 35.6395 94.2312 35.3546 94.6804C35.0697 95.1296 34.6531 95.4804 34.1615 95.6853C33.67 95.8902 33.1271 95.9391 32.6067 95.8255C32.0862 95.7119 31.6134 95.4412 31.2525 95.0503C30.8915 94.6593 30.6598 94.167 30.5889 93.6401C30.518 93.1132 30.6112 92.5773 30.856 92.1051L30.856 92.1051Z" fill="#FFB6B6"/>
<path d="M20.187 60.3574C19.8034 64.5806 20.5979 68.2888 22.0227 71.7213L22.2057 74.7744L23.6705 76.8559L29.9168 77.6697L31.0637 74.0604L28.4964 70.6516L28.2805 62.1387L21.8749 56.291L20.187 60.3574Z" fill="#2F2E41"/>
<path d="M14.2961 146.443C14.1736 146.448 14.0524 146.416 13.9488 146.351C13.8452 146.285 13.7643 146.19 13.717 146.077C13.6697 145.964 13.6583 145.839 13.6844 145.72C13.7105 145.6 13.7727 145.492 13.8627 145.409L13.9037 145.246C13.8983 145.233 13.8929 145.22 13.8874 145.207C13.7641 144.916 13.5573 144.668 13.2932 144.494C13.029 144.32 12.7193 144.228 12.4028 144.229C12.0864 144.231 11.7773 144.325 11.5145 144.501C11.2517 144.677 11.0468 144.926 10.9256 145.218C10.4412 146.382 9.8244 147.549 9.67254 148.78C9.60566 149.324 9.63387 149.875 9.75593 150.41C8.61815 147.933 8.02733 145.241 8.02353 142.517C8.02329 141.833 8.06136 141.15 8.13755 140.47C8.20052 139.913 8.28788 139.36 8.39963 138.811C9.00946 135.832 10.3188 133.04 12.2201 130.663C13.1403 130.162 13.8845 129.392 14.3524 128.456C14.5219 128.119 14.6417 127.76 14.7081 127.389C14.6043 127.403 14.3167 125.825 14.3949 125.729C14.2503 125.509 13.9914 125.401 13.8334 125.187C13.0476 124.124 11.965 124.309 11.3998 125.754C10.1925 126.362 10.1808 127.37 10.9216 128.34C11.3929 128.957 11.4577 129.792 11.8712 130.453C11.8287 130.507 11.7844 130.56 11.7419 130.614C10.9642 131.612 10.2863 132.684 9.71811 133.814C9.8563 132.548 9.69137 131.267 9.2369 130.078C8.77629 128.969 7.91295 128.035 7.15268 127.076C6.95159 126.819 6.67852 126.627 6.36798 126.524C6.05743 126.421 5.72336 126.413 5.40798 126.5C5.09261 126.586 4.81009 126.764 4.59613 127.011C4.38218 127.258 4.2464 127.563 4.20595 127.887C4.2044 127.901 4.20288 127.915 4.20139 127.929C4.31432 127.993 4.42486 128.06 4.53301 128.132C4.66888 128.222 4.77416 128.352 4.83506 128.503C4.89595 128.654 4.90962 128.821 4.87427 128.98C4.83893 129.139 4.75621 129.284 4.63696 129.395C4.51772 129.507 4.3675 129.58 4.206 129.605L4.18946 129.607C4.22969 130.013 4.3008 130.416 4.40218 130.811C3.42684 134.575 5.53252 135.946 8.53915 136.008C8.60552 136.042 8.6702 136.075 8.73657 136.108C8.16567 137.722 7.80756 139.404 7.67127 141.111C7.5941 142.117 7.59865 143.129 7.68488 144.135L7.67977 144.099C7.46193 142.981 6.86384 141.971 5.98651 141.241C4.68346 140.173 2.84249 139.78 1.43673 138.921C1.28733 138.826 1.11361 138.774 0.936072 138.774C0.75853 138.774 0.584567 138.824 0.4347 138.919C0.284833 139.014 0.165315 139.15 0.0902426 139.31C0.0151698 139.471 -0.0123262 139.649 0.0109977 139.825L0.0167468 139.862C0.226306 139.948 0.430345 140.046 0.627676 140.156C0.740598 140.22 0.851138 140.287 0.959295 140.359C1.09517 140.449 1.20045 140.579 1.26135 140.73C1.32224 140.881 1.33591 141.047 1.30057 141.207C1.26522 141.366 1.18251 141.511 1.06326 141.622C0.944017 141.734 0.793804 141.807 0.632302 141.831L0.615751 141.834C0.603844 141.836 0.593619 141.837 0.581733 141.839C0.939791 142.692 1.44234 143.478 2.06736 144.161C2.67721 147.446 5.29653 147.758 8.0984 146.801H8.10011C8.40753 148.134 8.85295 149.432 9.42919 150.673H14.1771C14.1941 150.62 14.2094 150.566 14.2248 150.513C13.7853 150.541 13.3441 150.515 12.911 150.435C13.2633 150.004 13.6155 149.569 13.9678 149.138C13.9756 149.13 13.983 149.121 13.9899 149.112C14.1686 148.892 14.349 148.673 14.5277 148.452L14.5278 148.452C14.5373 147.775 14.4595 147.1 14.2962 146.443L14.2961 146.443Z" fill="#F2F2F2"/>
<path d="M67.4002 150.687C67.4003 150.728 67.3923 150.769 67.3766 150.807C67.3609 150.845 67.3378 150.879 67.3087 150.908C67.2795 150.937 67.2449 150.961 67.2068 150.976C67.1687 150.992 67.1279 151 67.0867 151H0.350647C0.267491 151 0.187742 150.967 0.128942 150.908C0.0701427 150.849 0.0371094 150.77 0.0371094 150.687C0.0371094 150.604 0.0701427 150.524 0.128942 150.466C0.187742 150.407 0.267491 150.374 0.350647 150.374H67.0867C67.1279 150.374 67.1687 150.382 67.2068 150.398C67.2449 150.413 67.2795 150.436 67.3087 150.465C67.3378 150.494 67.3609 150.529 67.3766 150.567C67.3923 150.605 67.4003 150.646 67.4002 150.687Z" fill="#CCCCCC"/>
</g>
<defs>
<clipPath id="clip0_89_3150">
<rect width="195" height="151" fill="white"/>
</clipPath>
</defs>
</svg>
