<svg width="195" height="139" viewBox="0 0 195 139" fill="none" xmlns="http://www.w3.org/2000/svg">
<g clip-path="url(#clip0_82_672)">
<path d="M29.3243 61.5137L28.7088 56.5769C28.49 54.8224 27.5837 53.2267 26.1892 52.1409C24.7947 51.0551 23.0262 50.568 21.2729 50.7869C19.5195 51.0058 17.9248 51.9127 16.8397 53.3081C15.7545 54.7035 15.2678 56.4731 15.4865 58.2275L16.1021 63.1643C16.1317 63.3999 16.2535 63.6141 16.4408 63.7599C16.628 63.9057 16.8654 63.9712 17.1009 63.9421L28.547 62.5132C28.7824 62.4835 28.9965 62.3617 29.1422 62.1743C29.2879 61.9869 29.3534 61.7493 29.3243 61.5137Z" fill="#2F2E41"/>
<path d="M23.842 62.9865C21.1443 62.9865 18.9574 60.7982 18.9574 58.0988C18.9574 55.3994 21.1443 53.2111 23.842 53.2111C26.5397 53.2111 28.7266 55.3994 28.7266 58.0988C28.7266 60.7982 26.5397 62.9865 23.842 62.9865Z" fill="#FFB8B8"/>
<path d="M30.3217 56.7764C30.1471 55.3892 29.4298 54.1279 28.3271 53.2693C27.2243 52.4106 25.8263 52.0247 24.4395 52.1963L23.4528 52.3195C22.0664 52.4941 20.806 53.2119 19.9479 54.3153C19.0898 55.4188 18.7041 56.8177 18.8756 58.2053L18.8879 58.3041L20.9732 58.0437L21.436 55.9621L21.8267 57.9372L22.9044 57.8027L23.1378 56.7524L23.335 57.7489L30.334 56.8752L30.3217 56.7764Z" fill="#2F2E41"/>
<path d="M47.7322 75.5343C47.5829 75.8276 47.3712 76.0846 47.1119 76.2872C46.8526 76.4897 46.5521 76.6329 46.2315 76.7067C45.911 76.7805 45.5781 76.783 45.2565 76.7141C44.9348 76.6452 44.6322 76.5066 44.3698 76.3081L39.9333 78.9086L37.6963 76.5963L44.0132 73.0118C44.3758 72.5929 44.8793 72.3217 45.4284 72.2495C45.9775 72.1773 46.534 72.3092 46.9924 72.6201C47.4508 72.9311 47.7794 73.3995 47.9157 73.9366C48.0521 74.4737 47.9868 75.0422 47.7322 75.5343Z" fill="#FFB8B8"/>
<path d="M33.1909 80.2072C36.4634 80.2072 42.222 78.7413 42.5409 78.6594L42.6416 78.6336L41.7353 74.0419L32.9396 75.7802L28.1612 69.0471L22.6752 68.489L22.8283 68.6907C22.8996 68.7846 29.9714 78.0998 31.0719 79.6624C31.3497 80.0567 32.1429 80.2072 33.1909 80.2072Z" fill="#3F3D56"/>
<path d="M32.3139 97.4408L32.4449 97.3783C32.4727 97.365 35.2531 96.0117 36.6932 93.3699C38.1264 90.7406 31.4171 79.5869 30.9477 78.813L30.9409 75.2709L28.5273 68.7504L25.4492 67.0095L28.092 73.1798L32.3139 97.4408Z" fill="#3F3D56"/>
<path d="M35.397 135.511L38.3387 135.511L39.7383 124.157L35.3965 124.157L35.397 135.511Z" fill="#FFB8B8"/>
<path d="M34.6472 138.365L44.1328 138.364V138.244C44.1327 137.265 43.7437 136.325 43.0514 135.632C42.359 134.939 41.4199 134.55 40.4408 134.55H40.4405L34.647 134.55L34.6472 138.365Z" fill="#2F2E41"/>
<path d="M3.79921 132.932L6.59464 133.848L11.458 123.495L7.33207 122.142L3.79921 132.932Z" fill="#FFB8B8"/>
<path d="M2.19767 135.409L11.2118 138.365L11.2491 138.251C11.554 137.32 11.4767 136.305 11.0343 135.431C10.592 134.557 9.82075 133.895 8.89028 133.59L8.89006 133.589L3.38455 131.785L2.19767 135.409Z" fill="#2F2E41"/>
<path d="M9.49524 131.075L17.8814 117.066L24.9609 102.099L31.3314 115.32L33.8622 132.443L42.7373 132.567L42.7023 132.428L29.1206 78.4272L18.4835 80.0174L18.9677 87.0431L18.6793 87.4535C16.2764 90.8692 13.792 94.4008 15.2169 98.2077L11.1774 110.21L2.23552 130.195L9.49524 131.075Z" fill="#2F2E41"/>
<path d="M28.6333 90.1308C30.1747 90.1308 31.9332 88.3697 31.0209 85.3631L31.08 85.3203L28.8887 75.6328C30.801 72.8962 28.2798 70.6377 28.0435 70.4359L26.84 68.2682L21.5299 64.8984L18.8431 87.2362L18.8829 87.2742C20.8233 89.132 27.3404 90.1308 28.6333 90.1308Z" fill="#782FEF"/>
<path d="M17.7587 95.1711C17.9697 95.1744 18.1803 95.1521 18.3859 95.1047C18.5924 95.0529 18.9268 94.7898 19.4434 93.1065C21.4973 86.4151 23.9223 66.2812 22.1605 64.3109L22.1202 64.2658L19.2275 64.7482C18.987 64.5706 17.7253 63.6892 16.5609 63.8425C16.3212 63.8727 16.0902 63.9517 15.8822 64.0747C15.6743 64.1978 15.4937 64.3621 15.3517 64.5577L15.3318 64.5838L14.4102 77.7025L11.0342 93.1405L11.1151 93.1773C11.3115 93.2667 15.5272 95.1711 17.7587 95.1711Z" fill="#3F3D56"/>
<path d="M19.7043 90.0434C19.3756 90.0325 19.0532 89.9495 18.76 89.8004C18.4667 89.6512 18.2097 89.4396 18.0071 89.1803C17.8044 88.9211 17.661 88.6205 17.587 88.2998C17.513 87.9791 17.5101 87.646 17.5787 87.3241L13.3442 84.4057L14.4889 81.3982L20.411 85.6036C20.9439 85.7547 21.4028 86.096 21.7009 86.5631C21.999 87.0301 22.1156 87.5904 22.0285 88.1376C21.9414 88.6849 21.6567 89.1812 21.2283 89.5324C20.8 89.8837 20.2577 90.0655 19.7043 90.0434Z" fill="#FFB8B8"/>
<path d="M14.7418 86.7444L18.5137 83.9766L13.2117 76.7422L17.2804 69.5574L15.4601 64.3489L15.3425 64.5732C15.2877 64.6777 9.85405 75.0354 8.90619 76.6953C7.92004 78.4219 14.3994 86.3284 14.6757 86.664L14.7418 86.7444Z" fill="#3F3D56"/>
<path d="M-12.6249 139H71.1921C71.2505 139 71.3064 138.977 71.3477 138.935C71.3889 138.894 71.4121 138.838 71.4121 138.78C71.4121 138.721 71.3889 138.665 71.3477 138.624C71.3064 138.583 71.2505 138.56 71.1921 138.56H-12.6249C-12.6832 138.56 -12.7392 138.583 -12.7804 138.624C-12.8217 138.665 -12.8448 138.721 -12.8448 138.78C-12.8448 138.838 -12.8217 138.894 -12.7804 138.935C-12.7392 138.977 -12.6832 139 -12.6249 139Z" fill="#CCCCCC"/>
<path d="M139.878 119.306L136.668 117.953L134.466 101.85H105.14L102.753 117.888L99.8809 119.324C99.7435 119.393 99.6333 119.506 99.5682 119.646C99.5031 119.785 99.4869 119.942 99.5222 120.092C99.5575 120.241 99.6422 120.375 99.7627 120.47C99.8832 120.565 100.032 120.617 100.186 120.617H139.614C139.771 120.617 139.924 120.563 140.046 120.463C140.167 120.363 140.251 120.224 140.282 120.07C140.313 119.915 140.29 119.755 140.217 119.616C140.143 119.476 140.023 119.367 139.878 119.306Z" fill="#E6E6E6"/>
<path d="M191.994 103.993H47.9365C47.1807 103.991 46.4564 103.69 45.9225 103.154C45.3887 102.619 45.0889 101.893 45.0889 101.137V80.8102H194.841V101.137C194.841 101.893 194.542 102.619 194.008 103.154C193.474 103.69 192.75 103.991 191.994 103.993Z" fill="#CCCCCC"/>
<path d="M194.992 90.4171H44.957V3.44266C44.9581 2.52992 45.3209 1.65486 45.9659 1.00945C46.6109 0.364055 47.4855 0.00102365 48.3976 0H191.551C192.463 0.0010213 193.338 0.364053 193.983 1.00945C194.628 1.65485 194.991 2.52991 194.992 3.44266V90.4171Z" fill="#3F3D56"/>
<path d="M186.032 84.1046H53.919C53.2158 84.1038 52.5416 83.8239 52.0444 83.3264C51.5471 82.8288 51.2674 82.1542 51.2666 81.4505V8.96673C51.2674 8.26304 51.5471 7.58839 52.0443 7.0908C52.5416 6.59321 53.2158 6.31331 53.919 6.3125H186.032C186.735 6.31331 187.409 6.59321 187.906 7.0908C188.404 7.58839 188.683 8.26304 188.684 8.96673V81.4505C188.683 82.1542 188.404 82.8288 187.906 83.3264C187.409 83.8239 186.735 84.1038 186.032 84.1046Z" fill="white"/>
<path d="M157.026 120.785H82.7901C82.7141 120.787 82.6396 120.763 82.5784 120.718C82.5172 120.673 82.4726 120.609 82.4515 120.536C82.4384 120.486 82.4369 120.434 82.4471 120.383C82.4573 120.333 82.4789 120.285 82.5103 120.245C82.5417 120.204 82.582 120.171 82.6281 120.148C82.6743 120.125 82.7251 120.113 82.7765 120.113H156.999C157.079 120.11 157.158 120.135 157.222 120.183C157.287 120.23 157.333 120.298 157.354 120.376C157.365 120.425 157.365 120.476 157.353 120.525C157.342 120.574 157.32 120.62 157.288 120.659C157.257 120.699 157.217 120.73 157.171 120.752C157.126 120.774 157.076 120.785 157.026 120.785Z" fill="#CCCCCC"/>
<path d="M184.621 18.031H152.723V42.4158H184.621V18.031Z" fill="#F2F2F2"/>
<path d="M183.036 19.2426H154.308V41.204H183.036V19.2426Z" fill="white"/>
<path d="M169.176 35.5326C169.18 35.5327 169.184 35.5326 169.188 35.5324C171.132 35.4306 172.965 34.5915 174.314 33.1857C175.662 31.7798 176.425 29.9129 176.447 27.9645C176.468 26.0161 175.748 24.1325 174.431 22.6968C173.115 21.2611 171.301 20.381 169.359 20.2356C169.335 20.2338 169.311 20.2369 169.288 20.2448C169.265 20.2526 169.245 20.2652 169.227 20.2815C169.209 20.2976 169.195 20.3171 169.185 20.3389C169.176 20.3607 169.171 20.3843 169.17 20.4082L169.003 35.3556C169.003 35.4021 169.021 35.4468 169.053 35.48C169.086 35.5132 169.13 35.5321 169.176 35.5326Z" fill="#3F3D56"/>
<path d="M163.169 22.7072C163.229 22.7079 163.285 22.7322 163.327 22.7748L168.47 28.0373C168.49 28.0583 168.507 28.0833 168.518 28.1107C168.529 28.1381 168.534 28.1674 168.534 28.1969L168.454 35.3493C168.453 35.38 168.447 35.4103 168.434 35.4383C168.422 35.4664 168.404 35.4915 168.381 35.5122C168.358 35.5331 168.331 35.5491 168.302 35.5593C168.273 35.5694 168.242 35.5734 168.211 35.5711C166.781 35.4641 165.41 34.9601 164.25 34.1159C163.091 33.2717 162.19 32.1208 161.648 30.7923C161.107 29.4639 160.946 28.0106 161.184 26.5959C161.423 25.1811 162.051 23.8609 162.998 22.7835C163.018 22.7603 163.043 22.7415 163.071 22.7284C163.099 22.7153 163.13 22.7081 163.161 22.7072C163.163 22.7072 163.166 22.7071 163.169 22.7072Z" fill="#E6E6E6"/>
<path d="M168.398 20.1743C168.456 20.175 168.511 20.1975 168.552 20.2373C168.574 20.2584 168.592 20.284 168.604 20.3123C168.616 20.3407 168.622 20.3712 168.621 20.4019L168.549 26.8552C168.548 26.8997 168.535 26.9429 168.51 26.9796C168.485 27.0163 168.449 27.0447 168.408 27.0612C168.367 27.0778 168.322 27.0817 168.278 27.0726C168.235 27.0634 168.195 27.0416 168.164 27.0098L163.676 22.4177C163.655 22.3958 163.638 22.3699 163.627 22.3414C163.616 22.3129 163.611 22.2825 163.612 22.252C163.614 22.2215 163.621 22.1915 163.634 22.1639C163.647 22.1364 163.666 22.1117 163.688 22.0915C164.994 20.942 166.648 20.2666 168.384 20.1746C168.389 20.1744 168.394 20.1743 168.398 20.1743Z" fill="#782FEF"/>
<path d="M166.086 38.632C166.083 38.9042 166 39.1695 165.846 39.3941C165.692 39.6188 165.475 39.7928 165.223 39.8942C164.97 39.9956 164.693 40.0197 164.427 39.9636C164.161 39.9075 163.917 39.7737 163.727 39.579C163.537 39.3843 163.409 39.1376 163.358 38.87C163.308 38.6024 163.339 38.3259 163.446 38.0755C163.553 37.8252 163.731 37.6122 163.959 37.4635C164.187 37.3148 164.454 37.237 164.726 37.2401C165.091 37.2446 165.439 37.3937 165.694 37.6546C165.949 37.9156 166.09 38.2671 166.086 38.632Z" fill="#782FEF"/>
<path d="M170.016 38.6762C170.013 38.9484 169.929 39.2137 169.776 39.4383C169.622 39.663 169.405 39.837 169.153 39.9384C168.9 40.0397 168.623 40.0639 168.357 40.0078C168.091 39.9517 167.847 39.8178 167.657 39.6232C167.467 39.4285 167.338 39.1818 167.288 38.9142C167.238 38.6466 167.268 38.3701 167.375 38.1197C167.482 37.8694 167.661 37.6564 167.889 37.5077C168.117 37.359 168.384 37.2812 168.656 37.2843C169.02 37.2888 169.369 37.4379 169.624 37.6988C169.879 37.9597 170.02 38.3112 170.016 38.6762Z" fill="#3F3D56"/>
<path d="M173.947 38.7203C173.944 38.9925 173.86 39.2577 173.706 39.4824C173.553 39.7071 173.336 39.8811 173.083 39.9824C172.831 40.0838 172.554 40.108 172.288 40.0519C172.021 39.9958 171.778 39.8619 171.587 39.6672C171.397 39.4726 171.269 39.2258 171.219 38.9582C171.169 38.6906 171.199 38.4142 171.306 38.1638C171.413 37.9135 171.592 37.7005 171.82 37.5517C172.048 37.403 172.314 37.3253 172.586 37.3283C172.951 37.3328 173.299 37.4819 173.554 37.7429C173.809 38.0038 173.95 38.3553 173.947 38.7203Z" fill="#E6E6E6"/>
<path d="M184.284 46.2533H152.386V70.6381H184.284V46.2533Z" fill="#F2F2F2"/>
<path d="M182.699 47.4648H153.971V69.4263H182.699V47.4648Z" fill="white"/>
<path d="M158.846 54.6831C159.505 54.6831 160.039 54.1488 160.039 53.4896C160.039 52.8304 159.505 52.296 158.846 52.296C158.187 52.296 157.653 52.8304 157.653 53.4896C157.653 54.1488 158.187 54.6831 158.846 54.6831Z" fill="#3F3D56"/>
<path d="M178.011 52.5606C178.117 52.5604 178.222 52.5812 178.321 52.6218C178.419 52.6624 178.508 52.722 178.584 52.7972C178.659 52.8723 178.719 52.9616 178.759 53.0599C178.8 53.1582 178.821 53.2636 178.821 53.37C178.821 53.4764 178.8 53.5818 178.759 53.6801C178.719 53.7784 178.659 53.8677 178.584 53.9429C178.508 54.018 178.419 54.0776 178.321 54.1182C178.222 54.1588 178.117 54.1796 178.011 54.1795H165.466C165.251 54.1795 165.045 54.0942 164.894 53.9424C164.742 53.7906 164.657 53.5847 164.657 53.37C164.657 53.1553 164.742 52.9494 164.894 52.7976C165.045 52.6458 165.251 52.5606 165.466 52.5606H178.011ZM178.011 52.3623H165.466C165.333 52.3621 165.202 52.388 165.08 52.4386C164.957 52.4891 164.846 52.5633 164.753 52.6569C164.659 52.7505 164.585 52.8617 164.534 52.984C164.483 53.1064 164.457 53.2375 164.457 53.37C164.457 53.5025 164.483 53.6336 164.534 53.756C164.585 53.8783 164.659 53.9895 164.753 54.0831C164.846 54.1767 164.957 54.2509 165.08 54.3014C165.202 54.352 165.333 54.3779 165.466 54.3777H178.011C178.143 54.3779 178.274 54.352 178.397 54.3014C178.519 54.2509 178.63 54.1767 178.724 54.0831C178.818 53.9895 178.892 53.8783 178.943 53.756C178.993 53.6336 179.019 53.5025 179.019 53.37C179.019 53.2375 178.993 53.1064 178.943 52.984C178.892 52.8617 178.818 52.7505 178.724 52.6569C178.63 52.5633 178.519 52.4891 178.397 52.4386C178.274 52.388 178.143 52.3621 178.011 52.3623Z" fill="#3F3D56"/>
<path d="M173.061 54.3777H163.617C163.35 54.3777 163.094 54.2715 162.905 54.0826C162.716 53.8936 162.61 53.6373 162.61 53.37C162.61 53.1027 162.716 52.8464 162.905 52.6574C163.094 52.4685 163.35 52.3623 163.617 52.3623H173.061C173.328 52.3623 173.585 52.4685 173.773 52.6574C173.962 52.8464 174.068 53.1027 174.068 53.37C174.068 53.6373 173.962 53.8936 173.773 54.0826C173.585 54.2715 173.328 54.3777 173.061 54.3777Z" fill="#782FEF"/>
<path d="M158.846 59.6394C159.505 59.6394 160.039 59.1051 160.039 58.4459C160.039 57.7867 159.505 57.2523 158.846 57.2523C158.187 57.2523 157.653 57.7867 157.653 58.4459C157.653 59.1051 158.187 59.6394 158.846 59.6394Z" fill="#3F3D56"/>
<path d="M178.01 57.5169C178.117 57.5167 178.222 57.5375 178.32 57.5781C178.419 57.6187 178.508 57.6783 178.583 57.7535C178.658 57.8286 178.718 57.9179 178.759 58.0162C178.8 58.1145 178.821 58.2199 178.821 58.3263C178.821 58.4327 178.8 58.5381 178.759 58.6364C178.718 58.7347 178.658 58.824 178.583 58.8992C178.508 58.9743 178.419 59.0339 178.32 59.0745C178.222 59.1151 178.117 59.1359 178.01 59.1358H165.465C165.251 59.1358 165.045 59.0505 164.893 58.8987C164.741 58.7469 164.656 58.541 164.656 58.3263C164.656 58.1116 164.741 57.9057 164.893 57.7539C165.045 57.6021 165.251 57.5169 165.465 57.5169H178.01ZM178.01 57.3186H165.465C165.198 57.3186 164.942 57.4248 164.753 57.6138C164.564 57.8027 164.458 58.059 164.458 58.3263C164.458 58.5936 164.564 58.8499 164.753 59.0389C164.942 59.2278 165.198 59.334 165.465 59.334H178.01C178.277 59.334 178.533 59.2278 178.722 59.0389C178.911 58.8499 179.017 58.5936 179.017 58.3263C179.017 58.059 178.911 57.8027 178.722 57.6138C178.533 57.4248 178.277 57.3186 178.01 57.3186Z" fill="#3F3D56"/>
<path d="M176.628 59.334H163.617C163.35 59.334 163.094 59.2278 162.905 59.0389C162.716 58.8499 162.61 58.5936 162.61 58.3263C162.61 58.059 162.716 57.8027 162.905 57.6137C163.094 57.4248 163.35 57.3186 163.617 57.3186H176.628C176.895 57.3186 177.151 57.4248 177.34 57.6137C177.528 57.8027 177.635 58.059 177.635 58.3263C177.635 58.5936 177.528 58.8499 177.34 59.0389C177.151 59.2278 176.895 59.334 176.628 59.334Z" fill="#782FEF"/>
<path d="M158.846 64.5955C159.505 64.5955 160.039 64.0611 160.039 63.4019C160.039 62.7427 159.505 62.2084 158.846 62.2084C158.187 62.2084 157.653 62.7427 157.653 63.4019C157.653 64.0611 158.187 64.5955 158.846 64.5955Z" fill="#3F3D56"/>
<path d="M178.01 62.4732C178.117 62.473 178.222 62.4938 178.32 62.5344C178.419 62.575 178.508 62.6346 178.583 62.7098C178.658 62.7849 178.718 62.8742 178.759 62.9725C178.8 63.0708 178.821 63.1762 178.821 63.2826C178.821 63.389 178.8 63.4944 178.759 63.5927C178.718 63.691 178.658 63.7803 178.583 63.8554C178.508 63.9306 178.419 63.9902 178.32 64.0308C178.222 64.0714 178.117 64.0922 178.01 64.0921H165.465C165.251 64.0921 165.045 64.0068 164.893 63.855C164.741 63.7032 164.656 63.4973 164.656 63.2826C164.656 63.0679 164.741 62.862 164.893 62.7102C165.045 62.5584 165.251 62.4732 165.465 62.4732H178.01ZM178.01 62.2749H165.465C165.198 62.2749 164.942 62.3811 164.753 62.5701C164.564 62.759 164.458 63.0153 164.458 63.2826C164.458 63.5499 164.564 63.8062 164.753 63.9952C164.942 64.1841 165.198 64.2903 165.465 64.2903H178.01C178.277 64.2903 178.533 64.1841 178.722 63.9952C178.911 63.8062 179.017 63.5499 179.017 63.2826C179.017 63.0153 178.911 62.759 178.722 62.5701C178.533 62.3811 178.277 62.2749 178.01 62.2749Z" fill="#3F3D56"/>
<path d="M168.9 64.2903H163.617C163.485 64.2905 163.353 64.2646 163.231 64.214C163.109 64.1635 162.998 64.0893 162.904 63.9957C162.81 63.9021 162.736 63.7909 162.685 63.6686C162.634 63.5462 162.608 63.4151 162.608 63.2826C162.608 63.1501 162.634 63.019 162.685 62.8966C162.736 62.7743 162.81 62.6631 162.904 62.5695C162.998 62.4759 163.109 62.4017 163.231 62.3512C163.353 62.3006 163.485 62.2747 163.617 62.2749H168.9C169.167 62.2753 169.423 62.3816 169.611 62.5706C169.8 62.7595 169.906 63.0156 169.906 63.2826C169.906 63.5496 169.8 63.8057 169.611 63.9946C169.423 64.1836 169.167 64.2899 168.9 64.2903Z" fill="#782FEF"/>
<path d="M145.335 22.3452H56.2178V68.0469H145.335V22.3452Z" fill="#F2F2F2"/>
<path d="M142.366 24.616H59.1895V65.7759H142.366V24.616Z" fill="white"/>
<path d="M132.049 59.4965H71.4153C71.365 59.4965 71.3168 59.4765 71.2812 59.4409C71.2456 59.4053 71.2256 59.357 71.2256 59.3067V30.2264C71.2256 30.176 71.2456 30.1277 71.2812 30.0921C71.3168 30.0565 71.365 30.0365 71.4153 30.0365C71.4657 30.0365 71.5139 30.0565 71.5495 30.0921C71.5851 30.1277 71.6051 30.176 71.6051 30.2264V59.1168H132.049C132.1 59.1168 132.148 59.1368 132.183 59.1724C132.219 59.208 132.239 59.2563 132.239 59.3067C132.239 59.357 132.219 59.4053 132.183 59.4409C132.148 59.4765 132.1 59.4965 132.049 59.4965Z" fill="#3F3D56"/>
<path d="M84.3702 57.4077H78.8553C78.706 57.4075 78.5628 57.3481 78.4572 57.2424C78.3516 57.1368 78.2922 56.9935 78.292 56.8441V49.2369C78.2922 49.0875 78.3516 48.9443 78.4572 48.8386C78.5628 48.7329 78.706 48.6735 78.8553 48.6733H84.3702C84.5195 48.6735 84.6627 48.7329 84.7683 48.8386C84.8739 48.9443 84.9333 49.0875 84.9335 49.2369V56.8441C84.9333 56.9935 84.8739 57.1368 84.7683 57.2424C84.6627 57.3481 84.5195 57.4075 84.3702 57.4077Z" fill="#782FEF"/>
<path d="M94.4278 57.4079H88.9129C88.7636 57.4078 88.6204 57.3483 88.5148 57.2427C88.4092 57.137 88.3498 56.9937 88.3496 56.8443V42.0219C88.3498 41.8724 88.4092 41.7292 88.5148 41.6235C88.6204 41.5179 88.7636 41.4584 88.9129 41.4583H94.4278C94.5771 41.4584 94.7203 41.5179 94.8259 41.6235C94.9315 41.7292 94.9909 41.8724 94.9911 42.0219V56.8443C94.9909 56.9937 94.9315 57.137 94.8259 57.2427C94.7203 57.3483 94.5771 57.4078 94.4278 57.4079Z" fill="#782FEF"/>
<path d="M104.483 57.4077H98.9686C98.8192 57.4075 98.6761 57.3481 98.5705 57.2424C98.4649 57.1368 98.4055 56.9935 98.4053 56.8441V49.2369C98.4055 49.0875 98.4649 48.9443 98.5705 48.8386C98.6761 48.7329 98.8192 48.6735 98.9686 48.6733H104.483C104.633 48.6735 104.776 48.7329 104.882 48.8386C104.987 48.9443 105.047 49.0875 105.047 49.2369V56.8441C105.047 56.9935 104.987 57.1368 104.882 57.2424C104.776 57.3481 104.633 57.4075 104.483 57.4077Z" fill="#782FEF"/>
<path d="M114.541 57.4078H109.026C108.88 57.411 108.739 57.3561 108.633 57.2552C108.528 57.1544 108.467 57.0158 108.463 56.8697V39.1481C108.467 39.002 108.528 38.8634 108.633 38.7626C108.739 38.6617 108.88 38.6068 109.026 38.61H114.541C114.687 38.6068 114.828 38.6617 114.934 38.7626C115.039 38.8634 115.101 39.002 115.104 39.1481V56.8697C115.101 57.0158 115.039 57.1544 114.934 57.2552C114.828 57.3561 114.687 57.411 114.541 57.4078Z" fill="#782FEF"/>
<path d="M124.598 57.4079H119.083C118.933 57.4077 118.79 57.3483 118.685 57.2426C118.579 57.137 118.52 56.9937 118.52 56.8443V34.047C118.52 33.8976 118.579 33.7543 118.685 33.6487C118.79 33.543 118.933 33.4836 119.083 33.4834H124.598C124.747 33.4836 124.89 33.543 124.996 33.6487C125.101 33.7543 125.161 33.8976 125.161 34.047V56.8443C125.161 56.9937 125.101 57.137 124.996 57.2426C124.89 57.3483 124.747 57.4077 124.598 57.4079Z" fill="#782FEF"/>
<path d="M81.6131 46.3952C82.2419 46.3952 82.7517 45.8852 82.7517 45.256C82.7517 44.6268 82.2419 44.1167 81.6131 44.1167C80.9844 44.1167 80.4746 44.6268 80.4746 45.256C80.4746 45.8852 80.9844 46.3952 81.6131 46.3952Z" fill="#3F3D56"/>
<path d="M91.6698 38.9897C92.2986 38.9897 92.8083 38.4796 92.8083 37.8504C92.8083 37.2212 92.2986 36.7112 91.6698 36.7112C91.041 36.7112 90.5312 37.2212 90.5312 37.8504C90.5312 38.4796 91.041 38.9897 91.6698 38.9897Z" fill="#3F3D56"/>
<path d="M101.726 46.3952C102.355 46.3952 102.865 45.8852 102.865 45.256C102.865 44.6268 102.355 44.1167 101.726 44.1167C101.098 44.1167 100.588 44.6268 100.588 45.256C100.588 45.8852 101.098 46.3952 101.726 46.3952Z" fill="#3F3D56"/>
<path d="M111.784 35.3823C112.413 35.3823 112.923 34.8722 112.923 34.243C112.923 33.6138 112.413 33.1038 111.784 33.1038C111.155 33.1038 110.646 33.6138 110.646 34.243C110.646 34.8722 111.155 35.3823 111.784 35.3823Z" fill="#3F3D56"/>
<path d="M121.841 31.2049C122.469 31.2049 122.979 30.6949 122.979 30.0657C122.979 29.4365 122.469 28.9264 121.841 28.9264C121.212 28.9264 120.702 29.4365 120.702 30.0657C120.702 30.6949 121.212 31.2049 121.841 31.2049Z" fill="#3F3D56"/>
<path d="M101.751 45.5109L91.6699 37.9553L81.7265 45.4077L81.499 45.1039L91.6699 37.4807L101.703 45.0004L111.673 34.083L111.713 34.0667L121.77 30.0121L121.912 30.3643L111.895 34.4028L101.751 45.5109Z" fill="#3F3D56"/>
</g>
<defs>
<clipPath id="clip0_82_672">
<rect width="195" height="139" fill="white"/>
</clipPath>
</defs>
</svg>
