<svg width="17" height="16" viewBox="0 0 17 16" fill="none" xmlns="http://www.w3.org/2000/svg">
<g clip-path="url(#clip0_100_1435)">
<path d="M8.5 10C9.60457 10 10.5 9.10457 10.5 8C10.5 6.89543 9.60457 6 8.5 6C7.39543 6 6.5 6.89543 6.5 8C6.5 9.10457 7.39543 10 8.5 10Z" stroke="#333333" stroke-linecap="round" stroke-linejoin="round"/>
<path d="M13.4332 10.0003C13.3444 10.2014 13.318 10.4245 13.3572 10.6407C13.3964 10.857 13.4995 11.0565 13.6532 11.2137L13.6932 11.2537C13.8171 11.3775 13.9155 11.5245 13.9826 11.6864C14.0497 11.8483 14.0842 12.0218 14.0842 12.197C14.0842 12.3722 14.0497 12.5457 13.9826 12.7076C13.9155 12.8694 13.8171 13.0165 13.6932 13.1403C13.5693 13.2643 13.4223 13.3626 13.2604 13.4297C13.0986 13.4968 12.9251 13.5314 12.7498 13.5314C12.5746 13.5314 12.4011 13.4968 12.2393 13.4297C12.0774 13.3626 11.9303 13.2643 11.8065 13.1403L11.7665 13.1003C11.6094 12.9466 11.4098 12.8435 11.1936 12.8043C10.9773 12.7651 10.7542 12.7916 10.5532 12.8803C10.356 12.9648 10.1878 13.1052 10.0694 13.284C9.95093 13.4629 9.88736 13.6725 9.8865 13.887V14.0003C9.8865 14.3539 9.74603 14.6931 9.49598 14.9431C9.24593 15.1932 8.90679 15.3337 8.55317 15.3337C8.19955 15.3337 7.86041 15.1932 7.61036 14.9431C7.36031 14.6931 7.21984 14.3539 7.21984 14.0003V13.9403C7.21468 13.7197 7.14325 13.5057 7.01484 13.3261C6.88644 13.1466 6.70699 13.0098 6.49984 12.9337C6.29876 12.8449 6.07571 12.8184 5.85945 12.8577C5.64318 12.8969 5.44362 13 5.2865 13.1537L5.2465 13.1937C5.12267 13.3176 4.97562 13.416 4.81376 13.4831C4.65189 13.5502 4.47839 13.5847 4.30317 13.5847C4.12795 13.5847 3.95445 13.5502 3.79258 13.4831C3.63072 13.416 3.48367 13.3176 3.35984 13.1937C3.23587 13.0698 3.13752 12.9228 3.07042 12.7609C3.00333 12.599 2.96879 12.4255 2.96879 12.2503C2.96879 12.0751 3.00333 11.9016 3.07042 11.7397C3.13752 11.5779 3.23587 11.4308 3.35984 11.307L3.39984 11.267C3.55353 11.1099 3.65663 10.9103 3.69584 10.6941C3.73505 10.4778 3.70858 10.2547 3.61984 10.0537C3.53533 9.85648 3.39501 9.68831 3.21615 9.56986C3.03729 9.45141 2.8277 9.38785 2.61317 9.38699H2.49984C2.14622 9.38699 1.80708 9.24652 1.55703 8.99647C1.30698 8.74642 1.1665 8.40728 1.1665 8.05366C1.1665 7.70004 1.30698 7.3609 1.55703 7.11085C1.80708 6.8608 2.14622 6.72033 2.49984 6.72033H2.55984C2.7805 6.71516 2.99451 6.64374 3.17404 6.51533C3.35357 6.38693 3.49031 6.20748 3.5665 6.00033C3.65525 5.79925 3.68172 5.5762 3.64251 5.35993C3.60329 5.14367 3.5002 4.94411 3.3465 4.78699L3.3065 4.74699C3.18254 4.62316 3.08419 4.47611 3.01709 4.31425C2.94999 4.15238 2.91546 3.97888 2.91546 3.80366C2.91546 3.62844 2.94999 3.45494 3.01709 3.29307C3.08419 3.13121 3.18254 2.98416 3.3065 2.86033C3.43033 2.73636 3.57739 2.63801 3.73925 2.57091C3.90111 2.50381 4.07462 2.46928 4.24984 2.46928C4.42506 2.46928 4.59856 2.50381 4.76042 2.57091C4.92229 2.63801 5.06934 2.73636 5.19317 2.86033L5.23317 2.90033C5.39029 3.05402 5.58985 3.15712 5.80611 3.19633C6.02237 3.23554 6.24543 3.20907 6.4465 3.12033H6.49984C6.69702 3.03582 6.86518 2.8955 6.98363 2.71664C7.10208 2.53778 7.16565 2.32818 7.1665 2.11366V2.00033C7.1665 1.6467 7.30698 1.30757 7.55703 1.05752C7.80708 0.807468 8.14622 0.666992 8.49984 0.666992C8.85346 0.666992 9.1926 0.807468 9.44265 1.05752C9.69269 1.30757 9.83317 1.6467 9.83317 2.00033V2.06033C9.83403 2.27485 9.89759 2.48444 10.016 2.6633C10.1345 2.84216 10.3027 2.98248 10.4998 3.06699C10.7009 3.15574 10.924 3.18221 11.1402 3.143C11.3565 3.10378 11.5561 3.00068 11.7132 2.84699L11.7532 2.80699C11.877 2.68302 12.0241 2.58468 12.1859 2.51758C12.3478 2.45048 12.5213 2.41594 12.6965 2.41594C12.8717 2.41594 13.0452 2.45048 13.2071 2.51758C13.369 2.58468 13.516 2.68302 13.6398 2.80699C13.7638 2.93082 13.8622 3.07787 13.9293 3.23974C13.9963 3.4016 14.0309 3.5751 14.0309 3.75033C14.0309 3.92555 13.9963 4.09905 13.9293 4.26091C13.8622 4.42278 13.7638 4.56983 13.6398 4.69366L13.5998 4.73366C13.4461 4.89078 13.343 5.09034 13.3038 5.3066C13.2646 5.52286 13.2911 5.74592 13.3798 5.94699V6.00033C13.4643 6.19751 13.6047 6.36567 13.7835 6.48412C13.9624 6.60257 14.172 6.66614 14.3865 6.66699H14.4998C14.8535 6.66699 15.1926 6.80747 15.4426 7.05752C15.6927 7.30757 15.8332 7.6467 15.8332 8.00033C15.8332 8.35395 15.6927 8.69309 15.4426 8.94313C15.1926 9.19318 14.8535 9.33366 14.4998 9.33366H14.4398C14.2253 9.33451 14.0157 9.39808 13.8369 9.51653C13.658 9.63498 13.5177 9.80315 13.4332 10.0003V10.0003Z" stroke="#333333" stroke-linecap="round" stroke-linejoin="round"/>
</g>
<defs>
<clipPath id="clip0_100_1435">
<rect width="16" height="16" fill="white" transform="translate(0.5)"/>
</clipPath>
</defs>
</svg>
